<svg id="Layer_1" data-name="Layer 1" xmlns="http://www.w3.org/2000/svg" viewBox="0 0 347.87 158.26"><defs><style>.cls-1{fill:#6fb2e3;}.cls-1,.cls-2,.cls-3,.cls-4{fill-rule:evenodd;}.cls-2{fill:#be0911;}.cls-3{fill:#0a0d07;}.cls-4{fill:#211915;}</style></defs><title>LOGO_GD_color</title><polygon class="cls-1" points="57.05 51.94 116.51 0 154.15 0.35 189.56 32.7 157.64 33.11 135.75 14.29 91.62 52.35 131.36 88.74 161.12 56.81 193.47 57.23 154.15 102.69 113.45 102.69 57.05 51.94"/><path class="cls-2" d="M67,241.4H83.62v3.12H78v9.53H72.56v-9.53H67Zm19.11,0h14.68v2.7H91.57v2h8.52v2.58H91.57v2.49H101v2.87h-15Zm17.89,0h5.47v9.53H118v3.12H104Zm16.51,0h14.66v2.7H126v2h8.52v2.58H126v2.49h9.45v2.87H120.48Zm29.68,7.48,4.79,1a5.68,5.68,0,0,1-1.52,2.4,6.64,6.64,0,0,1-2.58,1.46,13.06,13.06,0,0,1-3.92.49,15.49,15.49,0,0,1-4.72-.6,7.1,7.1,0,0,1-3.16-2.11,6.21,6.21,0,0,1,1-8.69,11.26,11.26,0,0,1,6.63-1.69,11.75,11.75,0,0,1,5.26,1,6.08,6.08,0,0,1,2.85,3l-4.84.77a2.53,2.53,0,0,0-.53-.84,3.11,3.11,0,0,0-1.12-.69,4.16,4.16,0,0,0-1.49-.25,3.7,3.7,0,0,0-2.85,1.07,3.56,3.56,0,0,0-.74,2.5,3.77,3.77,0,0,0,.88,2.89,3.72,3.72,0,0,0,2.52.77,3.81,3.81,0,0,0,2.37-.62,3.58,3.58,0,0,0,1.17-1.83m6.76-1.15a5.61,5.61,0,0,1,2.42-4.83,11.44,11.44,0,0,1,6.73-1.72,11.74,11.74,0,0,1,6.83,1.7,5.49,5.49,0,0,1,2.39,4.75,5.92,5.92,0,0,1-1,3.63,6.66,6.66,0,0,1-3,2.21,13.28,13.28,0,0,1-4.92.79,15.52,15.52,0,0,1-5-.68,7,7,0,0,1-3.19-2.16,5.6,5.6,0,0,1-1.22-3.69m5.48,0a3.42,3.42,0,0,0,1,2.75,4.92,4.92,0,0,0,5.44,0,3.71,3.71,0,0,0,1-3,3.19,3.19,0,0,0-1-2.61,4.26,4.26,0,0,0-2.74-.82,4,4,0,0,0-2.65.84,3.42,3.42,0,0,0-1,2.77m15.78-6.35h7.2l2.78,7.69,2.77-7.69h7.18v12.65h-4.48V244.4l-3.46,9.65h-4l-3.46-9.65v9.65h-4.48Zm34.95,0h5.47v7.54a4.72,4.72,0,0,1-.5,2.12,4.64,4.64,0,0,1-1.53,1.74,6.89,6.89,0,0,1-2.19,1,15.3,15.3,0,0,1-3.83.42c-.87,0-1.81,0-2.83-.13a9.72,9.72,0,0,1-2.55-.51,6.55,6.55,0,0,1-1.88-1.09,3.83,3.83,0,0,1-1.17-1.46,5.64,5.64,0,0,1-.51-2.14V241.4h5.47v7.72a1.9,1.9,0,0,0,.8,1.62,4.56,4.56,0,0,0,4.45,0,1.86,1.86,0,0,0,.8-1.62Zm9.13,0h5.11l6.67,7v-7h5.17v12.65H234l-6.63-7v7h-5.15Zm20.8,0h5.49v12.65h-5.49Zm21.22,7.48,4.79,1a5.77,5.77,0,0,1-1.52,2.4,6.79,6.79,0,0,1-2.58,1.46,13.1,13.1,0,0,1-3.92.49,15.4,15.4,0,0,1-4.72-.6,7,7,0,0,1-3.16-2.11,6.18,6.18,0,0,1,1-8.69,11.17,11.17,0,0,1,6.61-1.69,11.8,11.8,0,0,1,5.27,1,6.06,6.06,0,0,1,2.84,3l-4.83.77a2.39,2.39,0,0,0-.54-.84,3,3,0,0,0-1.12-.69,4.1,4.1,0,0,0-1.48-.25,3.73,3.73,0,0,0-2.86,1.07,3.61,3.61,0,0,0-.75,2.5,3.76,3.76,0,0,0,.9,2.89,3.71,3.71,0,0,0,2.51.77,3.82,3.82,0,0,0,2.38-.62,3.64,3.64,0,0,0,1.17-1.83M282.63,252H276.4l-.87,2.09h-5.59l6.66-12.65h6l6.66,12.65H283.5Zm-1.14-2.74-2-4.55-1.94,4.55Zm20.84-.34,4.81,1a5.77,5.77,0,0,1-1.52,2.4,6.76,6.76,0,0,1-2.59,1.46,13.1,13.1,0,0,1-3.92.49,15.53,15.53,0,0,1-4.72-.6,7.1,7.1,0,0,1-3.16-2.11,5.64,5.64,0,0,1-1.33-3.86,5.58,5.58,0,0,1,2.34-4.83,11.2,11.2,0,0,1,6.62-1.69,11.8,11.8,0,0,1,5.27,1,6.15,6.15,0,0,1,2.84,3l-4.84.77a2.71,2.71,0,0,0-.53-.84,3.11,3.11,0,0,0-1.12-.69,4.16,4.16,0,0,0-1.49-.25,3.72,3.72,0,0,0-2.85,1.07,3.56,3.56,0,0,0-.76,2.5,3.76,3.76,0,0,0,.9,2.89,3.71,3.71,0,0,0,2.52.77,3.77,3.77,0,0,0,2.37-.62,3.44,3.44,0,0,0,1.16-1.83M310,241.4h5.49v12.65H310Zm8.73,6.33a5.61,5.61,0,0,1,2.42-4.83,11.44,11.44,0,0,1,6.73-1.72,11.7,11.7,0,0,1,6.82,1.7,5.47,5.47,0,0,1,2.39,4.75,5.92,5.92,0,0,1-1.05,3.63,6.63,6.63,0,0,1-3,2.21,13.3,13.3,0,0,1-4.93.79,15.45,15.45,0,0,1-5-.68,6.93,6.93,0,0,1-3.19-2.16,5.6,5.6,0,0,1-1.22-3.69m5.48,0a3.41,3.41,0,0,0,1,2.75,4.07,4.07,0,0,0,2.71.83,4.17,4.17,0,0,0,2.74-.81,3.71,3.71,0,0,0,1-3,3.16,3.16,0,0,0-1-2.61,4.23,4.23,0,0,0-2.73-.82,4,4,0,0,0-2.66.84,3.42,3.42,0,0,0-1,2.77m15.87-6.35h5.11l6.67,7v-7H357v12.65h-5.16l-6.64-7v7h-5.14Zm20.57,0h14.67v2.7h-9.19v2h8.53v2.58h-8.53v2.49h9.46v2.87H360.66Zm16.93,8.46,5.21-.23a2.39,2.39,0,0,0,.69,1.38,3.43,3.43,0,0,0,2.42.76,3.5,3.5,0,0,0,1.81-.39,1.08,1.08,0,0,0,.63-.91,1.09,1.09,0,0,0-.6-.88,8.91,8.91,0,0,0-2.8-.73,14.76,14.76,0,0,1-5.15-1.54,2.81,2.81,0,0,1-1.54-2.44A2.72,2.72,0,0,1,379,243a5.36,5.36,0,0,1,2.39-1.36,15.15,15.15,0,0,1,4.36-.5,11.75,11.75,0,0,1,5.17.9,3.79,3.79,0,0,1,2.13,2.87l-5.16.21a1.91,1.91,0,0,0-.87-1.24,3.55,3.55,0,0,0-1.82-.38,2.82,2.82,0,0,0-1.44.29.8.8,0,0,0-.48.7c0,.2.13.38.4.54a5.67,5.67,0,0,0,1.84.47,29.06,29.06,0,0,1,5.14,1.12,5.13,5.13,0,0,1,2.26,1.4,2.83,2.83,0,0,1,.7,1.87,3.22,3.22,0,0,1-.93,2.24,5.81,5.81,0,0,1-2.64,1.56,14.28,14.28,0,0,1-4.26.53c-3,0-5.1-.41-6.27-1.24a4.49,4.49,0,0,1-2-3.16" transform="translate(-66.79 -96.01)"/><path class="cls-3" d="M85.18,227.87v-4.34H101.4v8.9a43.76,43.76,0,0,1-8.24,2.66,44.63,44.63,0,0,1-8.5.7,31.67,31.67,0,0,1-9.85-1.27,12.59,12.59,0,0,1-5.91-3.77A8.73,8.73,0,0,1,66.79,225a8.6,8.6,0,0,1,2.3-6,14.52,14.52,0,0,1,6.72-3.83,34,34,0,0,1,9.29-1,42.43,42.43,0,0,1,8.43.62,13,13,0,0,1,4.64,2,8.13,8.13,0,0,1,2.76,3.34l-10.12,1.1a4.06,4.06,0,0,0-2.13-1.8,9.83,9.83,0,0,0-3.8-.62,9.22,9.22,0,0,0-5.51,1.47,5.38,5.38,0,0,0-2.06,4.66c0,2.27.71,3.88,2.08,4.85a10,10,0,0,0,5.79,1.45,16.49,16.49,0,0,0,3.35-.32,23.64,23.64,0,0,0,3.67-1.06v-2Zm22.59,7.57V214.56h17.5a40,40,0,0,1,7.44.51,8.6,8.6,0,0,1,4.14,1.9,4.3,4.3,0,0,1,1.58,3.37,4.24,4.24,0,0,1-1.19,3,9,9,0,0,1-3.33,2.05,18.82,18.82,0,0,1-3.68.82A13.78,13.78,0,0,1,133,227a9.86,9.86,0,0,1,1.67,1.09,9.7,9.7,0,0,1,1.48,1.3l5.07,6.06H129.33l-5.61-6.39a6.07,6.07,0,0,0-1.91-1.61,6.51,6.51,0,0,0-2.57-.48h-.93v8.48ZM118.31,223h4.44a24.65,24.65,0,0,0,2.77-.28,3.38,3.38,0,0,0,1.71-.65,1.58,1.58,0,0,0,.66-1.21,1.68,1.68,0,0,0-1-1.55,9.33,9.33,0,0,0-3.91-.55h-4.62Zm47.53-8.45h10.48V227a6.91,6.91,0,0,1-.94,3.5,8.21,8.21,0,0,1-2.94,2.88,13.88,13.88,0,0,1-4.2,1.73,34,34,0,0,1-7.36.7c-1.65,0-3.45-.07-5.41-.22a20.88,20.88,0,0,1-4.9-.85,13.06,13.06,0,0,1-3.6-1.8,6.79,6.79,0,0,1-2.24-2.4,8.23,8.23,0,0,1-1-3.54V214.56h10.48V227.3a3,3,0,0,0,1.53,2.67,10,10,0,0,0,8.54,0,3,3,0,0,0,1.53-2.69Zm17.39,0h17.46c3.78,0,6.63.55,8.53,1.66a5.25,5.25,0,0,1,2.83,4.74,5.46,5.46,0,0,1-3.09,4.95c-2.06,1.18-5.21,1.78-9.44,1.78h-5.75v7.75H183.23Zm10.54,8.89h2.58a10,10,0,0,0,4.26-.64,1.91,1.91,0,0,0,1.22-1.66,2,2,0,0,0-1.06-1.67,8.15,8.15,0,0,0-4-.68h-3ZM216.23,225a8.9,8.9,0,0,1,4.63-8c3.1-1.9,7.39-2.85,12.92-2.85s10,.93,13.06,2.8a8.73,8.73,0,0,1,4.59,7.84,9,9,0,0,1-2,6,13,13,0,0,1-5.79,3.65,29.44,29.44,0,0,1-9.45,1.3,34,34,0,0,1-9.52-1.12,13.8,13.8,0,0,1-6.1-3.57,8.39,8.39,0,0,1-2.34-6.09m10.51,0c0,2.11.62,3.62,1.9,4.54a10.66,10.66,0,0,0,10.44,0c1.23-.9,1.85-2.53,1.85-4.86a4.9,4.9,0,0,0-1.93-4.31,9,9,0,0,0-5.26-1.36,8.44,8.44,0,0,0-5.08,1.39c-1.29.91-1.92,2.44-1.92,4.57m46.31-10.48h15.6a30.11,30.11,0,0,1,7.46.76,13.27,13.27,0,0,1,4.69,2.21,8.64,8.64,0,0,1,2.69,3.35,10.07,10.07,0,0,1,.83,4,9.23,9.23,0,0,1-1.24,5.2,9.69,9.69,0,0,1-3.45,3.08,13.78,13.78,0,0,1-4.72,1.66,38.84,38.84,0,0,1-6.26.58h-15.6Zm10.5,4.72v11.41h2.58a17,17,0,0,0,4.68-.45,4.15,4.15,0,0,0,2.18-1.56,6.48,6.48,0,0,0,.78-3.63q0-3.31-1.75-4.54t-5.85-1.23Zm26.7-4.72h10.52v20.88H310.25Zm40.67,12.34,9.21,1.71a9.39,9.39,0,0,1-2.92,4,13.87,13.87,0,0,1-4.95,2.41,29.16,29.16,0,0,1-7.52.81,34.14,34.14,0,0,1-9.05-1,13.87,13.87,0,0,1-6.06-3.49,8.53,8.53,0,0,1-2.56-6.38,8.86,8.86,0,0,1,4.49-8q4.49-2.79,12.69-2.79a26.08,26.08,0,0,1,10.1,1.59,11,11,0,0,1,5.46,4.91L350.53,222a4.41,4.41,0,0,0-1-1.4,6.11,6.11,0,0,0-2.15-1.13,9.51,9.51,0,0,0-2.86-.4,7.71,7.71,0,0,0-5.46,1.76,5.33,5.33,0,0,0-1.45,4.12c0,2.31.58,3.9,1.72,4.76a7.87,7.87,0,0,0,4.82,1.29,8.14,8.14,0,0,0,4.56-1,5.75,5.75,0,0,0,2.23-3m14.29-12.34h28.13V219H375.72v3.32h16.34v4.26H375.72v4.12h18.13v4.73H365.21Z" transform="translate(-66.79 -96.01)"/><polygon class="cls-1" points="97.27 53.19 114.34 35.55 218.01 35.55 232.85 52.35 183.85 102.27 160.7 102.69 202.25 52.77 97.27 53.19"/><polygon class="cls-1" points="162.87 0 220.59 0 270.01 51.52 216.68 103.1 189.15 103.1 238.5 51.1 210.13 21.68 183.43 22.1 162.87 0"/><path class="cls-4" d="M398.88,211.33a7.9,7.9,0,1,0,7.92-7.85,7.65,7.65,0,0,0-7.92,7.85m1.44,0a6.45,6.45,0,1,1,6.48,6.44,6.18,6.18,0,0,1-6.48-6.44" transform="translate(-66.79 -96.01)"/><path class="cls-4" d="M405.6,215.18H404V207.5h2.88c2,0,3.15.56,3.15,2.31a1.8,1.8,0,0,1-1.85,2l2,3.36h-2l-1.78-3.24h-.77Zm1.45-4.54c.74,0,1.18-.15,1.18-1s-.85-.84-1.48-.84H405.6v1.85Z" transform="translate(-66.79 -96.01)"/></svg>