<?xml version="1.0" encoding="utf-8"?>
<!-- Generator: Adobe Illustrator 23.0.1, SVG Export Plug-In . SVG Version: 6.00 Build 0)  -->
<svg version="1.1" id="Layer_1" xmlns="http://www.w3.org/2000/svg" xmlns:xlink="http://www.w3.org/1999/xlink" x="0px" y="0px"
	 viewBox="0 0 623 311.3" style="enable-background:new 0 0 623 311.3;" xml:space="preserve">
<style type="text/css">
	.st0{fill:#FFFFFF;}
	.st1{fill:#FFFFFF;stroke:#FFFFFF;stroke-width:2.9;stroke-miterlimit:10;}
	.st2{fill:url(#SVGID_1_);}
	.st3{fill:url(#SVGID_2_);}
	.st4{fill:url(#SVGID_3_);}
	.st5{fill:url(#SVGID_4_);}
</style>
<title>Eclipse Logo®</title>
<path class="st0" d="M497.2,307.4c-0.7,1.2-1.6,2.2-2.6,3c-1,0.7-2.1,1-3.2,1c-2-0.1-3.9-0.9-5.3-2.4c-1.8-1.8-3.1-4-3.7-6.5
	c-0.8-2.8-1.2-5.7-1.2-8.6c0-5.5,1.1-9.9,3.4-13.2c1.9-3.1,5.3-5,8.9-5c2.3,0.1,4.5,0.8,6.4,2.1v4.1c-2.3-2.1-4.4-3.2-6.4-3.2
	c-2.7,0-4.8,1.4-6.4,4.1s-2.4,6.5-2.4,11.2c-0.1,3.4,0.6,6.8,2,10c1.3,2.8,3,4.1,5.2,4.1c1.6,0,3-0.9,3.8-2.2
	c1.1-1.6,1.7-3.5,1.6-5.4v-4.1h-6.3v-2.9h9.7v17.3h-2.1L497.2,307.4z"/>
<path class="st0" d="M505.7,276.2h8.3c2.6-0.1,5.1,0.6,7.2,2.1c1.8,1.4,2.7,3.5,2.7,6.3c0,2-0.6,3.9-1.7,5.5
	c-1.4,1.7-3.2,2.9-5.4,3.5c1.5,0.3,2.8,1.1,3.7,2.2c0.9,1.4,1.6,3,1.8,4.6l2,10.3h-3.6l-1.4-8.3c-0.2-2.1-1-4.1-2.2-5.7
	c-1.2-1.2-2.8-1.9-4.5-1.8H509v15.8h-3.3L505.7,276.2z M509,279.2v12.9h3.5c2.1,0.1,4.3-0.6,5.9-2c1.5-1.3,2.3-3.2,2.2-5.2
	c0.1-1.6-0.5-3.2-1.6-4.3c-1.4-1-3.1-1.6-4.8-1.4H509z"/>
<path class="st0" d="M528.3,276.2h3.4v24.9c-0.1,1.9,0.5,3.8,1.6,5.3c1.1,1.3,2.7,2.1,4.4,2c1.7,0.1,3.2-0.6,4.3-1.9
	c1.2-1.5,1.7-3.4,1.6-5.4v-24.9h3.4v24.9c0.1,2.7-0.8,5.4-2.6,7.5c-1.8,1.9-4.2,2.9-6.8,2.8c-2.6,0.1-5.1-1-6.8-3
	c-1.7-2.3-2.6-5.1-2.5-8V276.2z"/>
<path class="st0" d="M552.5,276.2h9.5c2.6-0.1,5.1,0.7,7.1,2.2c1.7,1.5,2.6,3.7,2.6,6.6c0.2,2.8-0.9,5.4-2.9,7.3
	c-2.2,1.8-4.9,2.8-7.7,2.6h-5.2v15.7h-3.4V276.2z M555.9,279.2v12.9h5.1c1.9,0.1,3.8-0.6,5.2-1.8c1.4-1.3,2.1-3.1,2-5
	c0.1-1.7-0.5-3.3-1.6-4.5c-1.2-1.1-2.9-1.7-4.6-1.6L555.9,279.2z"/>
<path class="st0" d="M586.2,275.7c3.3,0,6,1.6,8.1,4.8c2.1,3.2,3.1,7.7,3.1,13.6c0,5.2-1.1,9.4-3.2,12.5c-2.1,3.1-4.8,4.7-8.1,4.7
	c-3.4,0-6.5-1.8-8.2-4.6c-2.1-3.1-3.1-7.4-3.1-12.9c0-5.6,1-10,3-13.2C579.4,277.5,582.7,275.6,586.2,275.7z M586.3,278.7
	c-2.8,0-4.8,1.4-6.1,4.2c-1.5,3.5-2.1,7.3-2,11c0,4.3,0.7,7.7,2,10.3c1.3,2.6,3.2,3.9,5.7,3.8c2.5,0,4.4-1.3,5.8-4
	c1.4-2.7,2.1-6.3,2.1-10.8c0-4.9-0.7-8.6-2.2-11C590.1,279.9,588.3,278.7,586.3,278.7L586.3,278.7z"/>
<path class="st0" d="M622.9,176.7c0.1,3.3-1.2,6.6-3.6,8.9c-2.2,2.2-5.2,3.4-8.4,3.4c-6.6-0.5-11.5-6.3-11-12.9
	c0.5-5.9,5.1-10.5,11-11c2.2,0,4.4,0.6,6.3,1.8c1.8,1.1,3.3,2.7,4.3,4.6C622.4,173,622.9,174.8,622.9,176.7z M621.5,177.2
	c0.1-2.9-1-5.8-3.2-7.8c-2-1.9-4.6-3-7.4-3c-5.8,0.4-10.2,5.3-9.9,11.1c0.3,5.3,4.6,9.5,9.9,9.9c2.9,0.1,5.6-1.1,7.5-3.2
	C620.4,182.4,621.4,179.9,621.5,177.2L621.5,177.2z M606.1,170.8h5.2c1.1,0,2.2,0.3,3.1,0.9c0.8,0.6,1.2,1.5,1.2,2.5
	c0,0.8-0.3,1.6-0.8,2.3c-0.8,0.8-1.8,1.3-2.9,1.3c0.8,0.3,1.5,0.7,2,1.4c0.8,1.4,1.6,2.8,2.2,4.3h-1.9c-0.6-1.6-1.4-3.1-2.5-4.5
	c-0.9-0.8-2.1-1.1-3.3-1h-0.7v5.5h-1.6L606.1,170.8z M607.7,176.6h2.1c1.7,0,2.8-0.2,3.3-0.6c0.5-0.4,0.8-1.1,0.7-1.8
	c0.1-0.7-0.3-1.3-0.8-1.7c-0.9-0.4-1.9-0.5-2.9-0.5h-2.3V176.6z"/>
<path class="st0" d="M253.8,144.2h12.4v11.4h-12.4V144.2z"/>
<path class="st1" d="M204.1,220.7c-7.3,22-31.1,33.9-53,26.5c-13.4-4.5-23.7-15.4-27.3-29.1c-5.6-21.2,3.9-48.4,44.2-51.6l-0.8-0.7
	c-0.6-0.4-1.3-0.6-1.9-0.8c-41.1,0.1-57.4,34.5-50.8,59.4c6.6,24.8,32,39.7,56.8,33.1c17.2-4.5,30.3-18.5,33.8-35.9L204.1,220.7z"/>
<path class="st0" d="M217.9,144.2h12.4v113.8h-12.4V144.2z"/>
<path class="st0" d="M253.8,144.2h12.4v11.4h-12.4V144.2z M253.8,170.8h12.4v87.3h-12.4V170.8z"/>
<path class="st0" d="M471.9,196.7c-3.2-14.1-11.9-18.1-30-18.1c-13.1,0-25.2,2.9-25.2,14.9c0,9.1,5.9,10.9,32.4,14.4
	c26.7,3.5,37.8,8.2,37.8,25.2c0,17.3-14.1,27.7-41.5,27.7c-27.7,0-44.1-9.1-44.1-30h11.4c2.2,14.6,10.4,19.6,32.7,19.6
	c17.3,0,29-3.5,29-16.6c0-8.7-6.2-12.6-33.4-15.3s-36.7-9-36.7-24.5c0-15.1,12.2-25.8,37.6-25.8c28.4,0,39.9,10.2,41.5,28.5
	L471.9,196.7z"/>
<path class="st0" d="M549.8,250.3c-17.7,0-29.4-9.4-33.5-22.4h-0.1c-0.1-0.2-0.1-0.5-0.2-0.7c-0.6-2.2-1-4.4-1.2-6.7
	c-0.5-4.1-0.6-8.3-0.1-12.5h-0.1c0.1-0.5,0.2-0.9,0.2-1.3c0.1-0.7,0.2-1.4,0.4-2c0.1-0.2,0.1-0.5,0.2-0.8c0.2-0.9,0.5-1.9,0.8-2.8
	c5.3-16.2,20.3-22.7,34.4-22.7c16.6,0,32.4,8.1,35.9,29.5h-56.1v9.4H599c0-39.6-26.7-49.3-49.2-49.3c-32.6,0-47.5,22-47.5,46.3
	c0,21.3,11.7,46.3,47.5,46.3c28.9,0,42-15.1,47-30.5h-12.5C580,243.5,570.6,250.3,549.8,250.3z"/>
<path class="st0" d="M47.5,250.3c-17.7,0-29.4-9.4-33.5-22.4h-0.1c-0.1-0.2-0.1-0.5-0.2-0.7c-0.6-2.2-1-4.4-1.2-6.7
	c-0.5-4.1-0.5-8.3-0.1-12.5l0,0c0-0.5,0.2-0.9,0.2-1.3c0.1-0.7,0.2-1.4,0.4-2c0.1-0.2,0.1-0.5,0.2-0.8c0.2-0.9,0.5-1.9,0.8-2.8
	c5.2-16.2,20.2-22.7,34.3-22.7c16.6,0,32.4,8.1,35.9,29.5H28.1v9.4h68.5c0-39.6-26.7-49.3-49.2-49.3c-32.6,0-47.5,22-47.5,46.3
	c0,21.3,11.8,46.3,47.5,46.3c28.9,0,42-15.1,47-30.5H82.1C77.7,243.5,68.3,250.3,47.5,250.3z"/>
<path class="st0" d="M338.4,168.1c-24.2,0-32.2,12.8-35.6,20.1h-0.3v-17.5h-12.4V285h12.4v-21.5l0,0v-41.9c0,0-2.4-41.9,36-43
	c25.3-0.7,35.1,18.4,35.1,35.9c0,22.1-15.4,35.9-35.1,35.9c-9.7,0-17.3-2.6-23-6.9V254c6.9,4.4,14.8,6.7,23,6.7
	c32.5,0,47.5-22,47.5-46.3C385.9,193.1,374.1,168.1,338.4,168.1z"/>
<linearGradient id="SVGID_1_" gradientUnits="userSpaceOnUse" x1="308" y1="198.193" x2="455.3385" y2="198.193" gradientTransform="matrix(1 0 0 -1 -84.53 255.66)">
	<stop  offset="0" style="stop-color:#4D9FDA"/>
	<stop  offset="0.66" style="stop-color:#4D9CD6"/>
	<stop  offset="1" style="stop-color:#3F6090"/>
</linearGradient>
<path class="st2" d="M288.1,11.7c39.4-6.9,60.3,9.8,46.7,37.3s-56.5,55.5-95.8,62.4c-5.1,0.9-10.3,1.4-15.5,1.6
	c9.3,2.5,21.3,2.8,35.6,0.3c44-7.8,92-39,107.1-69.8S358-6,314,1.8c-14.8,2.8-29.2,7.5-42.7,14.1C276.8,14.1,282.4,12.7,288.1,11.7z
	"/>
<linearGradient id="SVGID_2_" gradientUnits="userSpaceOnUse" x1="297.9099" y1="196.1476" x2="406.0932" y2="196.1476" gradientTransform="matrix(1 0 0 -1 -84.53 255.66)">
	<stop  offset="0" style="stop-color:#4D9FDA"/>
	<stop  offset="0.66" style="stop-color:#4D9CD6"/>
	<stop  offset="1" style="stop-color:#3F6090"/>
</linearGradient>
<path class="st3" d="M223.5,53.7c26.4-17.2,58.1-22.8,71-12.5s1.9,32.5-24.5,49.6c-3.7,2.4-7.5,4.6-11.4,6.6
	c10.4-3.6,20.4-8.4,29.6-14.4c29.5-19.2,41.7-44,27.4-55.5s-49.9-5.2-79.3,14c-8.5,5.4-16.2,12.1-22.9,19.8
	C216.6,58.5,220,56,223.5,53.7z"/>
<linearGradient id="SVGID_3_" gradientUnits="userSpaceOnUse" x1="283.2431" y1="183.3518" x2="366.3788" y2="183.3518" gradientTransform="matrix(1 0 0 -1 -84.53 255.66)">
	<stop  offset="0" style="stop-color:#4D9FDA"/>
	<stop  offset="0.66" style="stop-color:#4D9CD6"/>
	<stop  offset="1" style="stop-color:#3F6090"/>
</linearGradient>
<path class="st4" d="M201.2,90.8c6.7-13.6,27.9-27.4,47.3-30.8s29.7,4.8,23,18.4c-1,2-2.3,3.9-3.7,5.7c5.2-4.6,9.3-9.5,11.8-14.4
	c7.5-15.2-4.1-24.4-25.8-20.6S208.5,68.4,201,83.7c-2.4,4.9-2.8,9.2-1.6,12.6C199.7,94.4,200.3,92.6,201.2,90.8z"/>
<linearGradient id="SVGID_4_" gradientUnits="userSpaceOnUse" x1="294.343" y1="167.2536" x2="345.2225" y2="167.2536" gradientTransform="matrix(1 0 0 -1 -84.53 255.66)">
	<stop  offset="0" style="stop-color:#4D9FDA"/>
	<stop  offset="0.66" style="stop-color:#4D9CD6"/>
	<stop  offset="1" style="stop-color:#3F6090"/>
</linearGradient>
<path class="st5" d="M218,104.3c-5.5-4.4-0.8-13.9,10.5-21.3s24.9-9.8,30.4-5.4c0.7,0.6,1.3,1.3,1.7,2.1c0.4-2.4-0.6-4.8-2.5-6.3
	c-6.2-4.9-21.4-2.2-34,6s-17.9,18.9-11.7,23.8c2,1.6,4.9,2.4,8.4,2.4C219.8,105.4,218.8,105,218,104.3z"/>
</svg>
