<svg id="Capa_1" data-name="Capa 1" xmlns="http://www.w3.org/2000/svg" xmlns:xlink="http://www.w3.org/1999/xlink" viewBox="0 0 75.79 72.5"><defs><style>.cls-1{fill-rule:evenodd;fill:url(#DÈgradÈ_sans_nom_18);}.cls-2{fill:#fff;}.cls-3{fill:url(#Degradado_sin_nombre_28);}.cls-4{fill:url(#Eau_2);}</style><linearGradient id="DÈgradÈ_sans_nom_18" x1="276.11" y1="375.18" x2="321.54" y2="429.33" gradientUnits="userSpaceOnUse"><stop offset="0" stop-color="#4e4e4e"/><stop offset="1" stop-color="#1f1f1f"/></linearGradient><linearGradient id="Degradado_sin_nombre_28" x1="316.44" y1="419.25" x2="344.24" y2="419.25" gradientUnits="userSpaceOnUse"><stop offset="0" stop-color="#4e4e4e"/><stop offset="1" stop-color="#a2a1a6"/></linearGradient><linearGradient id="Eau_2" x1="322.5" y1="394.69" x2="337.61" y2="412.69" gradientUnits="userSpaceOnUse"><stop offset="0" stop-color="#a24b49"/><stop offset="0.23" stop-color="#9d4240"/><stop offset="0.58" stop-color="#922a28"/><stop offset="1" stop-color="#862520"/></linearGradient></defs><title>FORTICLIENT</title><path class="cls-1" d="M333.63,414.91c-.45-2.33-.95-4.66-1.47-7a10.79,10.79,0,0,0-1.3-3.23,6.06,6.06,0,0,0-3.61-2.93c-.91-.26-1.8-.6-2.69-.95-3.35-1.3-6.65-2.76-10.1-3.8a5.21,5.21,0,0,1-2.58-1.77,4.8,4.8,0,0,0-1.41-1.25,2.06,2.06,0,0,1-1.11-2.25,5.67,5.67,0,0,1,.41-1.85,19.81,19.81,0,0,0,1.55-4.46,1.08,1.08,0,0,0,1.29-.5,10.36,10.36,0,0,0,.77-1.9c.42-1.48.77-3,1.14-4.46,0-.1.06-.21.08-.31a1,1,0,0,0-.59-1.18,6.26,6.26,0,0,0-.61-.2l.2-.85a14,14,0,0,0-1.21-9.58,9.55,9.55,0,0,0-5.83-5.07c-.76-.24-1.53-.44-2.3-.62-1.7-.4-3.48-.33-5.16-.86a3.6,3.6,0,0,0-1.26.05c-.83.07-1.62.34-2.48.36a2.85,2.85,0,0,0-2.37,1.11,2.19,2.19,0,0,1-1.05.66,3.53,3.53,0,0,0-1.89,2c-.22.58-.63,1.1-.79,1.69s-.06,1.26-.19,1.88a17.19,17.19,0,0,0-.26,3.79,23.42,23.42,0,0,0,.91,5.34c-.46.36-1.08.55-1.13,1.24a4,4,0,0,0,.2,2.19,20.35,20.35,0,0,1,1.23,3.43,4.24,4.24,0,0,0,.68,1.42,4.75,4.75,0,0,0,1.19.75,11.36,11.36,0,0,0,1.39,3.67,2.69,2.69,0,0,1,.33,2c-.16.83-.36,1.65-.51,2.34a13.1,13.1,0,0,0-1.66,1.43,8.14,8.14,0,0,1-3.52,2.35c-3.06,1.2-6.15,2.31-9.3,3.22a24.18,24.18,0,0,0-3.42,1.27,6.87,6.87,0,0,0-3.85,4c-.74,2-1.5,4.07-2.17,6.13a13.66,13.66,0,0,0-.73,4.06,8.32,8.32,0,0,0,.17,2.05,1.6,1.6,0,0,0,1.57,1.33c.42,0,.85,0,1.27,0l59.63.13c.32,0,.64,0,1,0,1.16-.06,1.59-.46,1.76-1.63A9.75,9.75,0,0,0,333.63,414.91Z" transform="translate(-268.44 -359.85)"/><path class="cls-2" d="M335.15,391.58s-3.75-3-11.82.53-5.22,17.14-5.22,17.14-3.23.31-3.27,2.43,0,15.59,0,15.59,4.47,4.69,8.65,5.08S344.38,400.6,335.15,391.58Z" transform="translate(-268.44 -359.85)"/><path class="cls-3" d="M343.29,410.47c-.49-.19-1-.38-1.71-.61l-3.87-1a35.16,35.16,0,0,0-7.37-.79,40,40,0,0,0-7.38.79,35.82,35.82,0,0,0-3.86,1c-.68.23-1.22.42-1.71.61a1.55,1.55,0,0,0-.95,1.39v14.75a1.57,1.57,0,0,0,.94,1.39,35.24,35.24,0,0,0,25.92,0,1.59,1.59,0,0,0,.94-1.39V411.86A1.55,1.55,0,0,0,343.29,410.47Zm-11.42,8.47v5.18a1.35,1.35,0,0,1-.7,1.19,1.55,1.55,0,0,1-2.36-1.31v-5.06a3,3,0,0,1-1.53-2.59,3.07,3.07,0,0,1,4.28-2.82,2.83,2.83,0,0,1,1.6,1.6A3,3,0,0,1,331.87,418.94Z" transform="translate(-268.44 -359.85)"/><path class="cls-4" d="M323,402.71a7.25,7.25,0,0,1,5-6.94,7.41,7.41,0,0,1,9.75,7v5.53l3.87,1.05v-6.58a11.24,11.24,0,0,0-22.48,0v6.58a34.78,34.78,0,0,1,3.86-1.05Z" transform="translate(-268.44 -359.85)"/></svg>