<svg id="Capa_1" data-name="Capa 1" xmlns="http://www.w3.org/2000/svg" xmlns:xlink="http://www.w3.org/1999/xlink" viewBox="0 0 77.6 71.65"><defs><style>.cls-1{fill:url(#DÈgradÈ_sans_nom_18);}.cls-2{fill:url(#DÈgradÈ_sans_nom_18-2);}.cls-3{fill:url(#Eau_2);}.cls-4{fill:url(#Eau_2-2);}.cls-5{fill:url(#Eau_2-3);}.cls-6{fill:#fff;}.cls-7{fill:url(#Degradado_sin_nombre_28);}.cls-8{fill:url(#Eau_2-4);}</style><linearGradient id="DÈgradÈ_sans_nom_18" x1="282.72" y1="364.08" x2="315.93" y2="403.66" gradientUnits="userSpaceOnUse"><stop offset="0" stop-color="#4e4e4e"/><stop offset="1" stop-color="#1f1f1f"/></linearGradient><linearGradient id="DÈgradÈ_sans_nom_18-2" x1="285.39" y1="386.73" x2="316.42" y2="423.72" xlink:href="#DÈgradÈ_sans_nom_18"/><linearGradient id="Eau_2" x1="277.03" y1="388.5" x2="285.95" y2="399.13" gradientUnits="userSpaceOnUse"><stop offset="0" stop-color="#a24b49"/><stop offset="0.23" stop-color="#9d4240"/><stop offset="0.58" stop-color="#922a28"/><stop offset="1" stop-color="#862520"/></linearGradient><linearGradient id="Eau_2-2" x1="290.96" y1="388.5" x2="299.87" y2="399.13" xlink:href="#Eau_2"/><linearGradient id="Eau_2-3" x1="304.88" y1="388.5" x2="313.8" y2="399.13" xlink:href="#Eau_2"/><linearGradient id="Degradado_sin_nombre_28" x1="316.54" y1="418.46" x2="344.34" y2="418.46" gradientUnits="userSpaceOnUse"><stop offset="0" stop-color="#4e4e4e"/><stop offset="1" stop-color="#a2a1a6"/></linearGradient><linearGradient id="Eau_2-4" x1="322.6" y1="393.9" x2="337.71" y2="411.9" xlink:href="#Eau_2"/></defs><title>FORTIWEB</title><path class="cls-1" d="M278.54,375.26a39.11,39.11,0,0,0,5.95,4.85.14.14,0,0,1,.05.17,28.91,28.91,0,0,0-2.51,8.53.14.14,0,0,0,.13.16h2.94a.14.14,0,0,0,.14-.11,32.06,32.06,0,0,1,2.14-7.13.12.12,0,0,1,.18-.07,30.69,30.69,0,0,0,10.75,2.83.12.12,0,0,1,.12.13v4.21a.14.14,0,0,0,.14.14h2.7a.13.13,0,0,0,.13-.14v-4.12a.14.14,0,0,1,.14-.14,26.64,26.64,0,0,0,11.38-2.78.14.14,0,0,1,.19.07,24.62,24.62,0,0,1,1.73,7,.13.13,0,0,0,.13.13h2.85a.14.14,0,0,0,.14-.15,34.56,34.56,0,0,0-2.09-8.59.14.14,0,0,1,.05-.16,40.54,40.54,0,0,0,6-4.48.15.15,0,0,1,.21,0,29.41,29.41,0,0,1,6.09,13.26.15.15,0,0,0,.14.11h5.07a.15.15,0,0,0,.14-.16,33.74,33.74,0,0,0-66.79,0,.14.14,0,0,0,.14.16H272a.13.13,0,0,0,.13-.12,26.23,26.23,0,0,1,6.26-13.58A.13.13,0,0,1,278.54,375.26Zm41.19-2.47a39.89,39.89,0,0,1-5.07,4.06.14.14,0,0,1-.2-.06,47.46,47.46,0,0,0-7.86-11,.14.14,0,0,1,.13-.23,28.53,28.53,0,0,1,13,7.06A.15.15,0,0,1,319.73,372.79Zm-18.09-7.5c3.85,4.22,7.85,8.61,10.08,13.12a.14.14,0,0,1-.06.19,26.52,26.52,0,0,1-10.11,2.83.14.14,0,0,1-.15-.14V365.38A.14.14,0,0,1,301.64,365.29Zm-3.21.2v15.7a.15.15,0,0,1-.15.14A24.35,24.35,0,0,1,289,378.4a.14.14,0,0,1-.06-.19,46.52,46.52,0,0,1,9.32-12.83A.13.13,0,0,1,298.43,365.49Zm-5,.32A56,56,0,0,0,286,376.58a.14.14,0,0,1-.2.05,38.06,38.06,0,0,1-5.09-4,.13.13,0,0,1,0-.2,28.55,28.55,0,0,1,12.53-6.81A.14.14,0,0,1,293.39,365.81Z" transform="translate(-266.74 -359.91)"/><path class="cls-2" d="M321.1,412.85a39.6,39.6,0,0,0-6.56-4.62,57,57,0,0,0,2.47-6.39h-3.29c-.5,1-1.27,3.14-2,4.78a34.64,34.64,0,0,0-10.29-2.93v-1.85h-3v1.86a26.61,26.61,0,0,0-10.89,3.36c-.85-1.86-1.42-4.23-2-5.22h-3.38a43.41,43.41,0,0,0,2.52,6.8,42.61,42.61,0,0,0-5.53,4.4,30,30,0,0,1-6.52-11.2h-5.29c3.66,13.86,16.95,25.57,32.74,25.57s29.08-11.71,32.75-25.57h-5.3A29.2,29.2,0,0,1,321.1,412.85Zm-39.64,1.94a38.57,38.57,0,0,1,4.74-3.65,49.24,49.24,0,0,0,7.6,9.92A28.36,28.36,0,0,1,281.46,414.79Zm17,6.3A50.23,50.23,0,0,1,289,409.57a25.39,25.39,0,0,1,9.39-2.73Zm3-14.26a27.12,27.12,0,0,1,8.85,2.33c-2.89,5.28-6.87,9.43-8.85,11.88Zm4.17,14.43a57,57,0,0,0,7.55-10.63,37.07,37.07,0,0,1,5.71,4.14A28.51,28.51,0,0,1,305.57,421.26Z" transform="translate(-266.74 -359.91)"/><path class="cls-3" d="M286.34,390.25a1.18,1.18,0,0,0-.31.44,6.44,6.44,0,0,0-.19.68l-1.39,5.53-1.58-5.18c-.13-.42-.23-.73-.31-.91a1.23,1.23,0,0,0-.41-.52,1.41,1.41,0,0,0-.85-.23,1.43,1.43,0,0,0-.85.22,1.45,1.45,0,0,0-.45.54c-.09.21-.19.51-.31.9l-1.56,5.18-1.39-5.53a3.74,3.74,0,0,0-.35-1,.86.86,0,0,0-.79-.33,1,1,0,0,0-.72.25.8.8,0,0,0-.29.62,3.32,3.32,0,0,0,.16.85l1.77,6.37c.05.19.11.4.18.62a2.14,2.14,0,0,0,.26.57,1.1,1.1,0,0,0,.42.38,1.53,1.53,0,0,0,.65.13,1.34,1.34,0,0,0,.79-.22,1.25,1.25,0,0,0,.42-.51,9.66,9.66,0,0,0,.32-.92l1.74-5.68L283,398.2c.14.44.25.75.33.94a1.16,1.16,0,0,0,.41.49,1.53,1.53,0,0,0,1.6,0,1.24,1.24,0,0,0,.4-.52c.08-.2.18-.52.3-1l1.77-6.37a3.48,3.48,0,0,0,.16-.85.78.78,0,0,0-.29-.62,1,1,0,0,0-.71-.25A1,1,0,0,0,286.34,390.25Z" transform="translate(-266.74 -359.91)"/><path class="cls-4" d="M300.27,390.25a1.08,1.08,0,0,0-.31.44,4.67,4.67,0,0,0-.19.68l-1.4,5.53-1.57-5.18c-.13-.42-.23-.73-.31-.91a1.34,1.34,0,0,0-.42-.52,1.38,1.38,0,0,0-.84-.23,1.43,1.43,0,0,0-.85.22,1.28,1.28,0,0,0-.45.54,7.47,7.47,0,0,0-.31.9l-1.56,5.18-1.39-5.53a3.38,3.38,0,0,0-.36-1,.85.85,0,0,0-.79-.33,1.07,1.07,0,0,0-.72.25.8.8,0,0,0-.29.62,3.84,3.84,0,0,0,.16.85l1.77,6.37c.06.19.12.4.18.62a2.51,2.51,0,0,0,.26.57,1.18,1.18,0,0,0,.42.38,1.55,1.55,0,0,0,.66.13,1.34,1.34,0,0,0,.79-.22,1.25,1.25,0,0,0,.42-.51c.07-.19.18-.49.32-.92l1.74-5.68L297,398.2c.14.44.24.75.32.94a1.33,1.33,0,0,0,.41.49,1.3,1.3,0,0,0,.79.22,1.28,1.28,0,0,0,.81-.23,1.27,1.27,0,0,0,.41-.52c.08-.2.18-.52.3-1l1.77-6.37a3.48,3.48,0,0,0,.16-.85.76.76,0,0,0-.3-.62,1,1,0,0,0-.71-.25A.94.94,0,0,0,300.27,390.25Z" transform="translate(-266.74 -359.91)"/><path class="cls-5" d="M314.2,390.25a1.11,1.11,0,0,0-.32.44,6.44,6.44,0,0,0-.19.68l-1.39,5.53-1.57-5.18a9.22,9.22,0,0,0-.32-.91,1.23,1.23,0,0,0-.41-.52,1.39,1.39,0,0,0-.85-.23,1.45,1.45,0,0,0-.85.22,1.34,1.34,0,0,0-.44.54,7.2,7.2,0,0,0-.32.9L306,396.9l-1.4-5.53a3.74,3.74,0,0,0-.35-1,.86.86,0,0,0-.79-.33,1,1,0,0,0-.72.25.8.8,0,0,0-.29.62,3.32,3.32,0,0,0,.16.85l1.77,6.37c.05.19.11.4.18.62a2.14,2.14,0,0,0,.26.57,1.18,1.18,0,0,0,.42.38,1.53,1.53,0,0,0,.65.13,1.32,1.32,0,0,0,.79-.22,1.25,1.25,0,0,0,.42-.51,9.66,9.66,0,0,0,.32-.92l1.74-5.68,1.72,5.68c.14.44.25.75.33.94a1.16,1.16,0,0,0,.41.49,1.33,1.33,0,0,0,2-.53c.07-.2.18-.52.3-1l1.76-6.37a3.48,3.48,0,0,0,.16-.85.75.75,0,0,0-.29-.62,1,1,0,0,0-.71-.25A.92.92,0,0,0,314.2,390.25Z" transform="translate(-266.74 -359.91)"/><path class="cls-6" d="M335.25,390.79s-3.75-3-11.82.53-5.22,17.14-5.22,17.14-3.23.31-3.27,2.43,0,15.59,0,15.59,4.47,4.69,8.65,5.08S344.48,399.81,335.25,390.79Z" transform="translate(-266.74 -359.91)"/><path class="cls-7" d="M343.39,409.68c-.49-.19-1-.38-1.71-.61l-3.87-1a35.16,35.16,0,0,0-7.37-.79,40,40,0,0,0-7.38.79,35.82,35.82,0,0,0-3.86,1c-.68.23-1.22.42-1.71.61a1.55,1.55,0,0,0-.95,1.39v14.75a1.57,1.57,0,0,0,.94,1.39,35.24,35.24,0,0,0,25.92,0,1.59,1.59,0,0,0,.94-1.39V411.07A1.55,1.55,0,0,0,343.39,409.68ZM332,418.15v5.18a1.35,1.35,0,0,1-.7,1.19,1.54,1.54,0,0,1-2.36-1.31v-5.06a3,3,0,0,1-1.53-2.59,3.07,3.07,0,0,1,4.28-2.82,2.83,2.83,0,0,1,1.6,1.6A3,3,0,0,1,332,418.15Z" transform="translate(-266.74 -359.91)"/><path class="cls-8" d="M323.06,401.92a7.25,7.25,0,0,1,5-6.94,7.41,7.41,0,0,1,9.75,7v5.53l3.87,1.05V402a11.24,11.24,0,0,0-22.48,0v6.58a34.78,34.78,0,0,1,3.86-1.05Z" transform="translate(-266.74 -359.91)"/></svg>