<svg id="Capa_1" data-name="Capa 1" xmlns="http://www.w3.org/2000/svg" xmlns:xlink="http://www.w3.org/1999/xlink" viewBox="0 0 75.31 74.23"><defs><style>.cls-1,.cls-10,.cls-11,.cls-12,.cls-13,.cls-14,.cls-15,.cls-16,.cls-17,.cls-18,.cls-19,.cls-2,.cls-20,.cls-21,.cls-22,.cls-23,.cls-24,.cls-25,.cls-26,.cls-27,.cls-28,.cls-29,.cls-3,.cls-30,.cls-31,.cls-32,.cls-33,.cls-34,.cls-35,.cls-36,.cls-37,.cls-38,.cls-39,.cls-4,.cls-40,.cls-41,.cls-42,.cls-43,.cls-44,.cls-45,.cls-46,.cls-47,.cls-48,.cls-49,.cls-5,.cls-50,.cls-51,.cls-52,.cls-53,.cls-54,.cls-55,.cls-56,.cls-57,.cls-58,.cls-59,.cls-6,.cls-60,.cls-61,.cls-62,.cls-63,.cls-64,.cls-65,.cls-66,.cls-67,.cls-68,.cls-69,.cls-7,.cls-70,.cls-71,.cls-72,.cls-73,.cls-74,.cls-8,.cls-9{fill-rule:evenodd;}.cls-1{fill:url(#DÈgradÈ_sans_nom_2);}.cls-2{fill:url(#DÈgradÈ_sans_nom_2-2);}.cls-3{fill:url(#DÈgradÈ_sans_nom_2-3);}.cls-4{fill:url(#DÈgradÈ_sans_nom_2-4);}.cls-5{fill:url(#DÈgradÈ_sans_nom_2-5);}.cls-6{fill:url(#DÈgradÈ_sans_nom_2-6);}.cls-7{fill:url(#DÈgradÈ_sans_nom_2-7);}.cls-8{fill:url(#DÈgradÈ_sans_nom_2-8);}.cls-9{fill:url(#DÈgradÈ_sans_nom_2-9);}.cls-10{fill:url(#DÈgradÈ_sans_nom_2-10);}.cls-11{fill:url(#DÈgradÈ_sans_nom_2-11);}.cls-12{fill:url(#DÈgradÈ_sans_nom_2-12);}.cls-13{fill:url(#DÈgradÈ_sans_nom_2-13);}.cls-14{fill:url(#DÈgradÈ_sans_nom_2-14);}.cls-15{fill:url(#DÈgradÈ_sans_nom_2-15);}.cls-16{fill:url(#DÈgradÈ_sans_nom_2-16);}.cls-17{fill:url(#DÈgradÈ_sans_nom_2-17);}.cls-18{fill:url(#DÈgradÈ_sans_nom_2-18);}.cls-19{fill:url(#DÈgradÈ_sans_nom_2-19);}.cls-20{fill:url(#DÈgradÈ_sans_nom_2-20);}.cls-21{fill:url(#DÈgradÈ_sans_nom_2-21);}.cls-22{fill:url(#DÈgradÈ_sans_nom_2-22);}.cls-23{fill:url(#DÈgradÈ_sans_nom_2-23);}.cls-24{fill:url(#DÈgradÈ_sans_nom_2-24);}.cls-25{fill:url(#DÈgradÈ_sans_nom_2-25);}.cls-26{fill:url(#DÈgradÈ_sans_nom_2-26);}.cls-27{fill:url(#DÈgradÈ_sans_nom_2-27);}.cls-28{fill:url(#DÈgradÈ_sans_nom_2-28);}.cls-29{fill:url(#DÈgradÈ_sans_nom_2-29);}.cls-30{fill:url(#DÈgradÈ_sans_nom_2-30);}.cls-31{fill:url(#DÈgradÈ_sans_nom_2-31);}.cls-32{fill:url(#DÈgradÈ_sans_nom_2-32);}.cls-33{fill:url(#DÈgradÈ_sans_nom_2-33);}.cls-34{fill:url(#DÈgradÈ_sans_nom_2-34);}.cls-35{fill:url(#DÈgradÈ_sans_nom_2-35);}.cls-36{fill:url(#DÈgradÈ_sans_nom_2-36);}.cls-37{fill:url(#DÈgradÈ_sans_nom_2-37);}.cls-38{fill:url(#DÈgradÈ_sans_nom_2-38);}.cls-39{fill:url(#DÈgradÈ_sans_nom_2-39);}.cls-40{fill:url(#DÈgradÈ_sans_nom_2-40);}.cls-41{fill:url(#DÈgradÈ_sans_nom_2-41);}.cls-42{fill:url(#DÈgradÈ_sans_nom_2-42);}.cls-43{fill:url(#DÈgradÈ_sans_nom_2-43);}.cls-44{fill:url(#DÈgradÈ_sans_nom_2-44);}.cls-45{fill:url(#DÈgradÈ_sans_nom_2-45);}.cls-46{fill:url(#DÈgradÈ_sans_nom_2-46);}.cls-47{fill:url(#DÈgradÈ_sans_nom_2-47);}.cls-48{fill:url(#DÈgradÈ_sans_nom_2-48);}.cls-49{fill:url(#DÈgradÈ_sans_nom_2-49);}.cls-50{fill:url(#DÈgradÈ_sans_nom_2-50);}.cls-51{fill:url(#DÈgradÈ_sans_nom_2-51);}.cls-52{fill:url(#DÈgradÈ_sans_nom_2-52);}.cls-53{fill:url(#DÈgradÈ_sans_nom_2-53);}.cls-54{fill:url(#DÈgradÈ_sans_nom_2-54);}.cls-55{fill:url(#DÈgradÈ_sans_nom_2-55);}.cls-56{fill:url(#DÈgradÈ_sans_nom_2-56);}.cls-57{fill:url(#DÈgradÈ_sans_nom_2-57);}.cls-58{fill:url(#DÈgradÈ_sans_nom_2-58);}.cls-59{fill:url(#DÈgradÈ_sans_nom_2-59);}.cls-60{fill:url(#DÈgradÈ_sans_nom_2-60);}.cls-61{fill:url(#DÈgradÈ_sans_nom_2-61);}.cls-62{fill:url(#DÈgradÈ_sans_nom_2-62);}.cls-63{fill:url(#DÈgradÈ_sans_nom_2-63);}.cls-64{fill:url(#DÈgradÈ_sans_nom_2-64);}.cls-65{fill:url(#DÈgradÈ_sans_nom_2-65);}.cls-66{fill:url(#DÈgradÈ_sans_nom_2-66);}.cls-67{fill:url(#DÈgradÈ_sans_nom_2-67);}.cls-68{fill:url(#DÈgradÈ_sans_nom_2-68);}.cls-69{fill:url(#DÈgradÈ_sans_nom_2-69);}.cls-70{fill:url(#DÈgradÈ_sans_nom_2-70);}.cls-71{fill:url(#DÈgradÈ_sans_nom_2-71);}.cls-72{fill:url(#DÈgradÈ_sans_nom_2-72);}.cls-73{fill:url(#DÈgradÈ_sans_nom_2-73);}.cls-74{fill:url(#DÈgradÈ_sans_nom_2-74);}.cls-75{fill:#fff;}.cls-76{fill:url(#Degradado_sin_nombre_28);}.cls-77{fill:url(#Eau_2);}</style><linearGradient id="DÈgradÈ_sans_nom_2" x1="279.75" y1="366.59" x2="320.84" y2="415.55" gradientUnits="userSpaceOnUse"><stop offset="0" stop-color="#735657"/><stop offset="1" stop-color="#1f1f1f"/></linearGradient><linearGradient id="DÈgradÈ_sans_nom_2-2" x1="293.67" y1="362.01" x2="302.68" y2="372.74" xlink:href="#DÈgradÈ_sans_nom_2"/><linearGradient id="DÈgradÈ_sans_nom_2-3" x1="271.55" y1="382.38" x2="271.61" y2="382.45" xlink:href="#DÈgradÈ_sans_nom_2"/><linearGradient id="DÈgradÈ_sans_nom_2-4" x1="283" y1="370.17" x2="287.84" y2="375.94" xlink:href="#DÈgradÈ_sans_nom_2"/><linearGradient id="DÈgradÈ_sans_nom_2-5" x1="284.85" y1="365.41" x2="287.25" y2="368.27" xlink:href="#DÈgradÈ_sans_nom_2"/><linearGradient id="DÈgradÈ_sans_nom_2-6" x1="311.18" y1="378.51" x2="314.26" y2="382.18" xlink:href="#DÈgradÈ_sans_nom_2"/><linearGradient id="DÈgradÈ_sans_nom_2-7" x1="304.71" y1="373.44" x2="304.92" y2="373.69" xlink:href="#DÈgradÈ_sans_nom_2"/><linearGradient id="DÈgradÈ_sans_nom_2-8" x1="305.4" y1="372.27" x2="307.49" y2="374.76" xlink:href="#DÈgradÈ_sans_nom_2"/><linearGradient id="DÈgradÈ_sans_nom_2-9" x1="290.29" y1="382.22" x2="292.02" y2="384.27" xlink:href="#DÈgradÈ_sans_nom_2"/><linearGradient id="DÈgradÈ_sans_nom_2-10" x1="316.05" y1="366.69" x2="318.65" y2="369.79" xlink:href="#DÈgradÈ_sans_nom_2"/><linearGradient id="DÈgradÈ_sans_nom_2-11" x1="310.54" y1="379.89" x2="311.62" y2="381.18" xlink:href="#DÈgradÈ_sans_nom_2"/><linearGradient id="DÈgradÈ_sans_nom_2-12" x1="281.66" y1="369.24" x2="283.09" y2="370.94" xlink:href="#DÈgradÈ_sans_nom_2"/><linearGradient id="DÈgradÈ_sans_nom_2-13" x1="281.31" y1="395.03" x2="283.24" y2="397.33" xlink:href="#DÈgradÈ_sans_nom_2"/><linearGradient id="DÈgradÈ_sans_nom_2-14" x1="281.2" y1="375.24" x2="282.19" y2="376.41" xlink:href="#DÈgradÈ_sans_nom_2"/><linearGradient id="DÈgradÈ_sans_nom_2-15" x1="284.58" y1="396.63" x2="285.56" y2="397.8" xlink:href="#DÈgradÈ_sans_nom_2"/><linearGradient id="DÈgradÈ_sans_nom_2-16" x1="276.55" y1="373.13" x2="276.62" y2="373.22" xlink:href="#DÈgradÈ_sans_nom_2"/><linearGradient id="DÈgradÈ_sans_nom_2-17" x1="276.65" y1="373.18" x2="276.67" y2="373.2" xlink:href="#DÈgradÈ_sans_nom_2"/><linearGradient id="DÈgradÈ_sans_nom_2-18" x1="317.58" y1="367.11" x2="319.07" y2="368.89" xlink:href="#DÈgradÈ_sans_nom_2"/><linearGradient id="DÈgradÈ_sans_nom_2-19" x1="278.75" y1="372.26" x2="279.27" y2="372.89" xlink:href="#DÈgradÈ_sans_nom_2"/><linearGradient id="DÈgradÈ_sans_nom_2-20" x1="280.21" y1="371.54" x2="280.56" y2="371.96" xlink:href="#DÈgradÈ_sans_nom_2"/><linearGradient id="DÈgradÈ_sans_nom_2-21" x1="292.47" y1="370.99" x2="293.03" y2="371.66" xlink:href="#DÈgradÈ_sans_nom_2"/><linearGradient id="DÈgradÈ_sans_nom_2-22" x1="293.73" y1="405.02" x2="294.29" y2="405.69" xlink:href="#DÈgradÈ_sans_nom_2"/><linearGradient id="DÈgradÈ_sans_nom_2-23" x1="317.42" y1="387.21" x2="317.96" y2="387.86" xlink:href="#DÈgradÈ_sans_nom_2"/><linearGradient id="DÈgradÈ_sans_nom_2-24" x1="319.03" y1="388.33" x2="319.74" y2="389.17" xlink:href="#DÈgradÈ_sans_nom_2"/><linearGradient id="DÈgradÈ_sans_nom_2-25" x1="10.77" y1="12.27" x2="10.77" y2="12.28" xlink:href="#DÈgradÈ_sans_nom_2"/><linearGradient id="DÈgradÈ_sans_nom_2-26" x1="279.3" y1="370.92" x2="279.64" y2="371.33" xlink:href="#DÈgradÈ_sans_nom_2"/><linearGradient id="DÈgradÈ_sans_nom_2-27" x1="278.57" y1="374.07" x2="278.9" y2="374.46" xlink:href="#DÈgradÈ_sans_nom_2"/><linearGradient id="DÈgradÈ_sans_nom_2-28" x1="279.32" y1="370.05" x2="279.65" y2="370.44" xlink:href="#DÈgradÈ_sans_nom_2"/><linearGradient id="DÈgradÈ_sans_nom_2-29" x1="284.41" y1="373.17" x2="284.74" y2="373.56" xlink:href="#DÈgradÈ_sans_nom_2"/><linearGradient id="DÈgradÈ_sans_nom_2-30" x1="280.25" y1="370.93" x2="280.48" y2="371.21" xlink:href="#DÈgradÈ_sans_nom_2"/><linearGradient id="DÈgradÈ_sans_nom_2-31" x1="289.05" y1="384.25" x2="289.36" y2="384.63" xlink:href="#DÈgradÈ_sans_nom_2"/><linearGradient id="DÈgradÈ_sans_nom_2-32" x1="288.11" y1="382.42" x2="288.62" y2="383.03" xlink:href="#DÈgradÈ_sans_nom_2"/><linearGradient id="DÈgradÈ_sans_nom_2-33" x1="280.5" y1="369.57" x2="280.74" y2="369.85" xlink:href="#DÈgradÈ_sans_nom_2"/><linearGradient id="DÈgradÈ_sans_nom_2-34" x1="277.61" y1="371.42" x2="277.77" y2="371.62" xlink:href="#DÈgradÈ_sans_nom_2"/><linearGradient id="DÈgradÈ_sans_nom_2-35" x1="317.56" y1="386.35" x2="317.9" y2="386.76" xlink:href="#DÈgradÈ_sans_nom_2"/><linearGradient id="DÈgradÈ_sans_nom_2-36" x1="281.83" y1="376.48" x2="281.97" y2="376.65" xlink:href="#DÈgradÈ_sans_nom_2"/><linearGradient id="DÈgradÈ_sans_nom_2-37" x1="282.88" y1="397.16" x2="283.22" y2="397.57" xlink:href="#DÈgradÈ_sans_nom_2"/><linearGradient id="DÈgradÈ_sans_nom_2-38" x1="306.1" y1="367.84" x2="306.37" y2="368.16" xlink:href="#DÈgradÈ_sans_nom_2"/><linearGradient id="DÈgradÈ_sans_nom_2-39" x1="271.61" y1="384.51" x2="272.01" y2="384.99" xlink:href="#DÈgradÈ_sans_nom_2"/><linearGradient id="DÈgradÈ_sans_nom_2-40" x1="286.89" y1="397.32" x2="287.19" y2="397.68" xlink:href="#DÈgradÈ_sans_nom_2"/><linearGradient id="DÈgradÈ_sans_nom_2-41" x1="281.81" y1="381.39" x2="282.06" y2="381.69" xlink:href="#DÈgradÈ_sans_nom_2"/><linearGradient id="DÈgradÈ_sans_nom_2-42" x1="282.81" y1="376.54" x2="283" y2="376.78" xlink:href="#DÈgradÈ_sans_nom_2"/><linearGradient id="DÈgradÈ_sans_nom_2-43" x1="278.69" y1="371.33" x2="278.89" y2="371.57" xlink:href="#DÈgradÈ_sans_nom_2"/><linearGradient id="DÈgradÈ_sans_nom_2-44" x1="325.12" y1="389.85" x2="325.29" y2="390.05" xlink:href="#DÈgradÈ_sans_nom_2"/><linearGradient id="DÈgradÈ_sans_nom_2-45" x1="325.84" y1="375.47" x2="326.17" y2="375.87" xlink:href="#DÈgradÈ_sans_nom_2"/><linearGradient id="DÈgradÈ_sans_nom_2-46" x1="311.36" y1="377.83" x2="311.52" y2="378.03" xlink:href="#DÈgradÈ_sans_nom_2"/><linearGradient id="DÈgradÈ_sans_nom_2-47" x1="280.94" y1="369.74" x2="281.07" y2="369.89" xlink:href="#DÈgradÈ_sans_nom_2"/><linearGradient id="DÈgradÈ_sans_nom_2-48" x1="289.06" y1="400.76" x2="289.21" y2="400.94" xlink:href="#DÈgradÈ_sans_nom_2"/><linearGradient id="DÈgradÈ_sans_nom_2-49" x1="285.17" y1="373.13" x2="285.33" y2="373.31" xlink:href="#DÈgradÈ_sans_nom_2"/><linearGradient id="DÈgradÈ_sans_nom_2-50" x1="320.11" y1="378.98" x2="320.26" y2="379.16" xlink:href="#DÈgradÈ_sans_nom_2"/><linearGradient id="DÈgradÈ_sans_nom_2-51" x1="317.65" y1="379.94" x2="317.87" y2="380.21" xlink:href="#DÈgradÈ_sans_nom_2"/><linearGradient id="DÈgradÈ_sans_nom_2-52" x1="321.14" y1="378.74" x2="321.29" y2="378.92" xlink:href="#DÈgradÈ_sans_nom_2"/><linearGradient id="DÈgradÈ_sans_nom_2-53" x1="315.47" y1="387.62" x2="315.63" y2="387.8" xlink:href="#DÈgradÈ_sans_nom_2"/><linearGradient id="DÈgradÈ_sans_nom_2-54" x1="315.46" y1="367.57" x2="315.77" y2="367.94" xlink:href="#DÈgradÈ_sans_nom_2"/><linearGradient id="DÈgradÈ_sans_nom_2-55" x1="288.23" y1="384.32" x2="288.43" y2="384.56" xlink:href="#DÈgradÈ_sans_nom_2"/><linearGradient id="DÈgradÈ_sans_nom_2-56" x1="282.55" y1="394.53" x2="282.72" y2="394.73" xlink:href="#DÈgradÈ_sans_nom_2"/><linearGradient id="DÈgradÈ_sans_nom_2-57" x1="283.84" y1="372.82" x2="283.9" y2="372.9" xlink:href="#DÈgradÈ_sans_nom_2"/><linearGradient id="DÈgradÈ_sans_nom_2-58" x1="278.59" y1="370.98" x2="278.69" y2="371.1" xlink:href="#DÈgradÈ_sans_nom_2"/><linearGradient id="DÈgradÈ_sans_nom_2-59" x1="280.51" y1="369.23" x2="280.58" y2="369.32" xlink:href="#DÈgradÈ_sans_nom_2"/><linearGradient id="DÈgradÈ_sans_nom_2-60" x1="282.32" y1="393.77" x2="282.7" y2="394.22" xlink:href="#DÈgradÈ_sans_nom_2"/><linearGradient id="DÈgradÈ_sans_nom_2-61" x1="281.01" y1="395.81" x2="281.11" y2="395.93" xlink:href="#DÈgradÈ_sans_nom_2"/><linearGradient id="DÈgradÈ_sans_nom_2-62" x1="52.92" y1="19.58" x2="52.92" y2="19.58" xlink:href="#DÈgradÈ_sans_nom_2"/><linearGradient id="DÈgradÈ_sans_nom_2-63" x1="321.22" y1="378.51" x2="321.34" y2="378.66" xlink:href="#DÈgradÈ_sans_nom_2"/><linearGradient id="DÈgradÈ_sans_nom_2-64" x1="278.29" y1="371.91" x2="278.35" y2="371.98" xlink:href="#DÈgradÈ_sans_nom_2"/><linearGradient id="DÈgradÈ_sans_nom_2-65" x1="281.94" y1="374.82" x2="282.06" y2="374.97" xlink:href="#DÈgradÈ_sans_nom_2"/><linearGradient id="DÈgradÈ_sans_nom_2-66" x1="283.56" y1="375.82" x2="283.65" y2="375.92" xlink:href="#DÈgradÈ_sans_nom_2"/><linearGradient id="DÈgradÈ_sans_nom_2-67" x1="271.44" y1="383.57" x2="271.57" y2="383.72" xlink:href="#DÈgradÈ_sans_nom_2"/><linearGradient id="DÈgradÈ_sans_nom_2-68" x1="287.88" y1="384.2" x2="288.08" y2="384.43" xlink:href="#DÈgradÈ_sans_nom_2"/><linearGradient id="DÈgradÈ_sans_nom_2-69" x1="288.11" y1="384.4" x2="288.12" y2="384.41" xlink:href="#DÈgradÈ_sans_nom_2"/><linearGradient id="DÈgradÈ_sans_nom_2-70" x1="312.32" y1="380.1" x2="312.41" y2="380.2" xlink:href="#DÈgradÈ_sans_nom_2"/><linearGradient id="DÈgradÈ_sans_nom_2-71" x1="284.33" y1="396.12" x2="284.41" y2="396.21" xlink:href="#DÈgradÈ_sans_nom_2"/><linearGradient id="DÈgradÈ_sans_nom_2-72" x1="328.75" y1="398.02" x2="328.8" y2="398.08" xlink:href="#DÈgradÈ_sans_nom_2"/><linearGradient id="DÈgradÈ_sans_nom_2-73" x1="279.36" y1="370.48" x2="279.39" y2="370.52" xlink:href="#DÈgradÈ_sans_nom_2"/><linearGradient id="DÈgradÈ_sans_nom_2-74" x1="277.15" y1="371.92" x2="277.19" y2="371.96" xlink:href="#DÈgradÈ_sans_nom_2"/><linearGradient id="Degradado_sin_nombre_28" x1="312.09" y1="418.47" x2="343.64" y2="418.47" gradientUnits="userSpaceOnUse"><stop offset="0" stop-color="#4e4e4e"/><stop offset="1" stop-color="#a2a1a6"/></linearGradient><linearGradient id="Eau_2" x1="318.97" y1="390.58" x2="336.12" y2="411.02" gradientUnits="userSpaceOnUse"><stop offset="0" stop-color="#a24b49"/><stop offset="0.23" stop-color="#9d4240"/><stop offset="0.58" stop-color="#922a28"/><stop offset="1" stop-color="#862520"/></linearGradient></defs><title>FORTIGATE</title><path class="cls-1" d="M300.3,359.12a32,32,0,1,0,31.95,31.95A32,32,0,0,0,300.3,359.12Zm28.07,28.51a2.77,2.77,0,0,1-.33-1,.77.77,0,0,0-.1-.29.75.75,0,0,1,0-.7.62.62,0,0,1,.5-.31.43.43,0,0,1,.42.26c.06.14.12.28.17.42a.45.45,0,0,1,0,.12l-.17-.08c-.17-.08-.26,0-.36.12s-.07.14,0,.27.17.36.25.55.13.38.19.58l.13-.09c0,.11.07.22.11.34s-.17,0-.19.09-.06.18,0,.28a.7.7,0,0,1,.15.51,1.32,1.32,0,0,0,.06.48,1.27,1.27,0,0,1,0,.22c-.11,0-.21,0-.31,0a.21.21,0,0,1-.24-.16.19.19,0,0,0-.17-.16c-.1,0-.09-.13-.1-.21s-.05-.26-.07-.42a.69.69,0,0,0,.07-.13A.91.91,0,0,0,328.37,387.63Zm-28,33.75a30.25,30.25,0,0,1-28.84-39.31c0,.05,0,.1,0,.15l0,.15a.2.2,0,0,1,.05-.09c.05.08,0,.13,0,.18s0,0,0,0h-.05s.11.15.14.19a2.55,2.55,0,0,1,0,.28h0a1,1,0,0,1,0-.2l0,0,0,.4h0l.06-.16c.08,0,.1.07.08.15a2.58,2.58,0,0,0,0,.38,1.25,1.25,0,0,0,0,.19c0,.22,0,.44,0,.65v0a3.69,3.69,0,0,1,.29.4.53.53,0,0,1,.1.45l-.06.14-.12-.06a.24.24,0,0,0-.07.29,1.63,1.63,0,0,1,0,.66,8.7,8.7,0,0,0-.15.89,7,7,0,0,1-.08,1.12.11.11,0,0,0,0,.08,2.81,2.81,0,0,0,.19.81.5.5,0,0,1,0,.12l.09.59c0,.11.06.21.06.31a.4.4,0,0,0,.2.37.73.73,0,0,1,.32.43c0,.05,0,.11,0,.13s0,.17,0,.25a1.09,1.09,0,0,1,.07.24c0,.17.06.35.1.52a1.66,1.66,0,0,0,.12.31c.08.18.16.36.25.53s0,.15-.08.19a.28.28,0,0,0,.05.08,1,1,0,0,1,.38.84.3.3,0,0,0,.05.15l.16.24.17.21.16.25c.07-.2,0-.3-.08-.4a.39.39,0,0,1-.11-.15c0-.14-.08-.28-.12-.41l-.15-.49-.16-.52a1.36,1.36,0,0,0-.17-.41,1.65,1.65,0,0,1-.26-.83.69.69,0,0,1,0-.13,1.56,1.56,0,0,1,.19.13s.09.08.1.13.09.37.13.55a1.3,1.3,0,0,0,.33.66.2.2,0,0,1,0,.08,1.61,1.61,0,0,0,.15.26.61.61,0,0,1,.16.4.43.43,0,0,0,.14.31,2,2,0,0,1,.22.27,4,4,0,0,1,.54,1.1.67.67,0,0,1,0,.42.4.4,0,0,0,.08.4l.51.54a.33.33,0,0,0,.1.06.69.69,0,0,1,.35.3.3.3,0,0,0,.24.14.54.54,0,0,1,.2.1,1.54,1.54,0,0,1,.19.17.63.63,0,0,0,.39.21.28.28,0,0,1,.13.07c.17.13.17.13.36,0a.19.19,0,0,1,.28,0c.19.19.37.4.57.58a1.28,1.28,0,0,0,.39.28,2.55,2.55,0,0,1,.54.22l.13.05a.22.22,0,0,0,.29-.07.23.23,0,0,1,.11,0,.76.76,0,0,0,.06.18,1.11,1.11,0,0,0,.19.34,1.18,1.18,0,0,1,.46.91.21.21,0,0,0,.17.22l.07-.1a1.44,1.44,0,0,1,.48.5.32.32,0,0,0,.3.22.4.4,0,0,1,.37.19,1.42,1.42,0,0,0,.25.24.12.12,0,0,0,.18,0,.11.11,0,0,0,0-.16c-.08-.08,0-.15,0-.21l.14-.11c.06,0,.14-.09.21,0s.21.14.2.27a.16.16,0,0,0,.08.17.41.41,0,0,1,.07.11.67.67,0,0,0,.08.17.63.63,0,0,1,.18.48.73.73,0,0,0,.07.3c0,.1.1.18,0,.29a.14.14,0,0,0,0,.09c0,.06.1.11.05.18a.4.4,0,0,1-.15.14.49.49,0,0,0-.33.38.43.43,0,0,1-.37.35.74.74,0,0,1-.11.56c-.1.15,0,.32,0,.47s.16.14.28.15,0,0,0,0a.26.26,0,0,1-.14.21.51.51,0,0,0-.19.51,1,1,0,0,0,.43.63.76.76,0,0,1,.18.22c0,.08.07.18.13.21a.8.8,0,0,1,.28.35c.11.21.21.43.34.63s.4.58.6.87a.66.66,0,0,1,.09.28.46.46,0,0,0,.13.27,2.61,2.61,0,0,0,.74.54,3.37,3.37,0,0,1,.35.22c.12.07.23.16.36.22a1.44,1.44,0,0,1,.57.4.94.94,0,0,1,.2.33,6.36,6.36,0,0,1,.16.73.37.37,0,0,1,0,.21,1.11,1.11,0,0,0,0,.6c0,.13.05.27.09.4a1,1,0,0,1,0,.62,1.7,1.7,0,0,0,0,.71,4.84,4.84,0,0,0,.17.54,4.43,4.43,0,0,1,.06.51.21.21,0,0,1,0,.1,2.92,2.92,0,0,0-.17.36.45.45,0,0,0,0,.23c0,.11.12.2.17.29s-.06.19,0,.25a3,3,0,0,1,.16.48c0,.07,0,.14.14.11l-.05-.28h.2c.07,0,.14.05.14.13s0,.46,0,.71l-.16-.07-.17-.05,0,0,.29.24-.13.14c.25.17.38.45.65.59,0,0,.1.08.1.11s.06.15.13.18l.78.35c.17.07.34.12.49.2a2.69,2.69,0,0,0,1.07.27,1.15,1.15,0,0,0-.25-.12,1.75,1.75,0,0,1-.63-.37,2.07,2.07,0,0,0-.25-.15.71.71,0,0,1-.14-.1.1.1,0,0,1,0-.1.11.11,0,0,1,.09-.06l.22,0a1.21,1.21,0,0,0,.05-.14c.1,0,.23,0,.31-.11a1.09,1.09,0,0,0-.1-.11l-.23-.11a.67.67,0,0,1-.24-.16c-.07-.06,0-.13.05-.15h.41c-.09-.17.1-.27,0-.42.1,0,.18.11.3,0s-.1-.09-.19-.1a.37.37,0,0,1-.34-.34c.24,0,.42.25.68.15a.78.78,0,0,0,0-.14v-.08c0-.23,0-.25.22-.21h.06a3.62,3.62,0,0,0,.87.08.63.63,0,0,0,.47-.2c.09-.08.09-.23,0-.27a1,1,0,0,1-.34-.35,1,1,0,0,0-.17-.12.43.43,0,0,1-.1-.09l0,0,.18,0,.67.22a2,2,0,0,0,.35.06.51.51,0,0,0,.51-.25,1,1,0,0,0,.08-.14.94.94,0,0,1,.38-.36l.18-.12a.47.47,0,0,0,.22-.35.28.28,0,0,1,.07-.13,1,1,0,0,1,.41-.26l.15-.06c0-.18,0-.35-.05-.51s0-.32.24-.42a.36.36,0,0,0,.15-.08.71.71,0,0,1,.52-.23.8.8,0,0,0,.43-.19.26.26,0,0,1,.19-.08,3.85,3.85,0,0,1,.48,0,.9.9,0,0,0,.51-.13.37.37,0,0,0,.14-.2.57.57,0,0,1,.11-.22,3,3,0,0,1,.22-.28.75.75,0,0,0,.22-.53.38.38,0,0,1,.11-.24.66.66,0,0,0,.12-.17,1.57,1.57,0,0,0,0-.91.59.59,0,0,1,0-.13.34.34,0,0,1,.2-.44,1.86,1.86,0,0,0,.28-.21l.75-.8a1.54,1.54,0,0,0,.44-1.19c0-.4-.21-.59-.61-.56A.81.81,0,0,1,299,407a2.33,2.33,0,0,1-.38-.31,1.09,1.09,0,0,0-.52-.32,1.2,1.2,0,0,0-.62-.06l-.14,0a.55.55,0,0,1-.41-.09l-.13-.08a.36.36,0,0,0-.41,0,.18.18,0,0,1-.22,0,1.23,1.23,0,0,0,0-.19.27.27,0,0,0-.11-.17c-.25-.13-.52-.25-.78-.36-.44-.18-.59-.13-.85.27l-.17.28-.42-.08c-.13-.26-.15-.29-.29-.36s-.25-.23-.13-.42a1.58,1.58,0,0,1,.27-.31l.28-.25c0-.05-.06-.1-.09-.12a.68.68,0,0,1-.29-.38c-.06-.14-.11-.28-.16-.42a.29.29,0,0,0-.08-.13l-.47-.38c-.07-.06-.17-.14-.25-.13-.24,0-.34-.11-.42-.3s-.06-.1-.08-.15a.24.24,0,0,0-.25-.15h-.72a.55.55,0,0,1-.53-.23l-.06,0c-.14,0-.19-.09-.26-.17a1,1,0,0,0-.16-.12.88.88,0,0,1-.19-.12.41.41,0,0,0-.38-.17c-.11,0-.16,0-.19-.14a.45.45,0,0,0-.36-.35,2.44,2.44,0,0,1-.41-.18s-.07-.08-.11-.13l.18-.06v0h-.38a.31.31,0,0,0-.2,0c-.13.14-.28.09-.42.08a.23.23,0,0,1-.24-.14.17.17,0,0,0-.17-.1l-.51,0c-.1,0-.18,0-.22-.13a.25.25,0,0,0-.1-.08.76.76,0,0,1-.49-.31l-.21.1c.09.13.28.16.23.37a1.83,1.83,0,0,0-.33,0,.29.29,0,0,0-.21.06c-.07.07,0,.17,0,.25s.05.06.06.1a.32.32,0,0,1,0,.16.21.21,0,0,1-.09.13s-.09,0-.12-.07a.92.92,0,0,1,0-.91.19.19,0,0,0,0-.27c-.07-.06-.14-.06-.23.05a.61.61,0,0,1-.32.18l-.64.17a.39.39,0,0,0-.34.39c0,.07,0,.17-.06.2a.84.84,0,0,0-.25.37c-.1,0-.16,0-.21-.09a3.71,3.71,0,0,0-.29-.27.54.54,0,0,0-.65-.07l-.27.1a.22.22,0,0,1-.29-.1,1.18,1.18,0,0,0-.4-.37.53.53,0,0,1-.25-.34c0-.27-.05-.54-.07-.82a.09.09,0,0,1,0-.07,1.13,1.13,0,0,0,.06-.74,2.27,2.27,0,0,1-.28-.21.53.53,0,0,0-.37-.15h-.75a.93.93,0,0,1-.23,0,.17.17,0,0,1-.11-.26.47.47,0,0,0,.08-.41,2.09,2.09,0,0,1,0-.25.29.29,0,0,1,.08-.23c.05-.06.13-.14.13-.21a1.1,1.1,0,0,1,.23-.53.29.29,0,0,0,0-.31c-.14,0-.28-.08-.42-.1a1.56,1.56,0,0,0-.43,0,.38.38,0,0,0-.29.39,2.61,2.61,0,0,1-.27.72l0,0c-.25-.1-.25-.1-.53,0s-.19.06-.32-.07l-.1-.08a1.37,1.37,0,0,1-.2-.22c-.12-.17-.22-.35-.33-.53a.49.49,0,0,1-.11-.42s0-.1,0-.15c0-.37-.05-.74-.05-1.11a1.72,1.72,0,0,0-.05-.6.94.94,0,0,1,.09-.77.28.28,0,0,1,.28-.19.17.17,0,0,0,.18-.11l.15-.23a.32.32,0,0,1,.5-.09c.06,0,.12.06.18,0s.15-.05.22,0,.39.14.48.2-.37.09.5,0v-.48s0,0,.12,0,0,0,0,0,.06,0,.12,0a.26.26,0,0,1,.35,0c.08.06.13.12.2.18s.16.07.27,0a.22.22,0,0,1,.36,0,.66.66,0,0,1,.11.24c.05.22.09.44.12.65a1.28,1.28,0,0,0,.21.51,1.67,1.67,0,0,1,.32.53.19.19,0,0,0,.34,0,.48.48,0,0,0,.07-.2.91.91,0,0,0,0-.54.66.66,0,0,1-.06-.27,1.35,1.35,0,0,0-.23-.67.93.93,0,0,1-.14-.38A1.35,1.35,0,0,1,282,391a6.3,6.3,0,0,1,.53-.37c.09-.07.2-.11.24-.24s.06-.07.1-.09.25-.14.37-.21l.2-.15c-.24-.14,0-.23,0-.34l-.18-.1c0-.09,0-.16.05-.24a1,1,0,0,1,.15-.37c.07-.1.12-.2.18-.3a.38.38,0,0,0,0-.43s0,0,0-.09l.16.06a1.49,1.49,0,0,0,.29-.46.23.23,0,0,0,0-.24c-.08-.1,0-.15.1-.17l.41-.1c.09,0,.06-.1.07-.13l.44-.2a.32.32,0,0,1,.17,0,.31.31,0,0,0,.27-.07c-.11,0-.13,0-.15-.06a.73.73,0,0,1,.18-.83c.1-.1.22-.18.32-.28a.39.39,0,0,1,.37-.13.49.49,0,0,0,.49-.25.34.34,0,0,1,0-.35l.35.05a.35.35,0,0,0,.41-.14.54.54,0,0,1,.18-.14c0,.1,0,.17.05.25l-.19.08a2.16,2.16,0,0,0-.33.24.35.35,0,0,0,0,.55c.09.08.13.09.23,0a.46.46,0,0,0,.07-.07,1.71,1.71,0,0,1,.69-.46,2.32,2.32,0,0,0,.36-.16,2.53,2.53,0,0,0,.36-.2c.11-.07.1-.17,0-.2a1.88,1.88,0,0,0-.33-.05,1.18,1.18,0,0,1-.83-.38.36.36,0,0,1-.07-.51,1.31,1.31,0,0,0,.05-.15l-.28-.07.21-.11c.07-.05.16-.09.23-.15A.25.25,0,0,0,288,383a.22.22,0,0,0-.23-.12h-.35a1.39,1.39,0,0,0-.74.22c-.12.08-.25.17-.38.24l-.19.08a.4.4,0,0,1,.2-.25l.21-.1a.78.78,0,0,0,.44-.45.32.32,0,0,1,.21-.2,2.36,2.36,0,0,1,.51-.12c.41,0,.82,0,1.23,0,.14,0,.27,0,.41,0a.71.71,0,0,0,.56-.27,1.21,1.21,0,0,1,.52-.34c.17-.06.35-.12.51-.19a1.38,1.38,0,0,0,.29-.17.36.36,0,0,0,.13-.21.84.84,0,0,0-.1-.6.47.47,0,0,1-.08-.36.37.37,0,0,0,0-.09l-.2.05-.64.25-.36.14a.3.3,0,0,1-.26,0,1.91,1.91,0,0,1,.32-.16c.18-.07.36-.13.53-.21a.28.28,0,0,0,.2-.23.39.39,0,0,0-.28-.11,1.81,1.81,0,0,1-.4,0c-.28-.06-.5-.19-.52-.51a1.18,1.18,0,0,1-.53-.28c.21-.21.21-.21.14-.51a.28.28,0,0,0-.14-.19.61.61,0,0,1-.22-.2.27.27,0,0,1-.05-.21c.07-.18,0-.28-.14-.38a.77.77,0,0,1-.22-.22.51.51,0,0,0-.25-.25.6.6,0,0,0-.33.35,1.21,1.21,0,0,1-.66.71c-.15.08-.22.05-.34-.07s-.1-.11-.15-.12a.27.27,0,0,1-.21-.25c0-.18,0-.37-.07-.55s-.05-.22-.23-.25l-.12,0c-.23,0-.26,0-.35-.28-.15,0-.24-.14-.34-.24a.32.32,0,0,0-.48-.05.52.52,0,0,1-.36.08l-.34-.06a2.8,2.8,0,0,0-.41,0,.38.38,0,0,0-.27.21.18.18,0,0,0,0,.23c.13.19.12.22,0,.39s-.12.13,0,.26l.07.12a.36.36,0,0,1,0,.47,1.1,1.1,0,0,1-.23.2,1.28,1.28,0,0,1-.17.1l.18.27c.06.11.14.2.2.31a1.25,1.25,0,0,1,.14.78.77.77,0,0,1-.3.45l-.68.58a.82.82,0,0,1,.2.65c0,.12,0,.25,0,.37s0,.1,0,.13a2.38,2.38,0,0,1-.4.44c-.08.05-.13.05-.19,0a2.65,2.65,0,0,1-.29-.29.8.8,0,0,1-.24-.75,3,3,0,0,0,0-.31.85.85,0,0,0,0-.23.23.23,0,0,0-.28-.2,2,2,0,0,0-.35.05.77.77,0,0,1-.56-.1l-1.08-.59a.29.29,0,0,0-.38,0c-.05.05-.11.08-.2.15a1.72,1.72,0,0,0,0-.23,2.42,2.42,0,0,0-.06-.47c0-.2-.12-.22-.3-.12l-.08,0a2.51,2.51,0,0,1,.45-1.41,5.5,5.5,0,0,0,.34-.5.58.58,0,0,1,.42-.34.46.46,0,0,0,.2-.14c.09-.11.05-.19-.09-.22a1.75,1.75,0,0,0-.24,0,.18.18,0,0,1,.14-.06l.31,0a.14.14,0,0,0,.18-.11c0-.12.11-.14.21-.17s.2-.05.24-.12a4.49,4.49,0,0,0,.29-.53s0,0,0-.08c-.21-.06-.45-.09-.46-.39a.14.14,0,0,1,.22,0c.16.19.26.2.47.07l.15-.1c.13-.1.26-.21.15-.4.14,0,.15-.05.21,0a.26.26,0,0,0,.39,0l.26-.19a.13.13,0,0,0,.2,0l.5-.47c.1-.11.09-.15,0-.24a.24.24,0,0,1,0-.36.37.37,0,0,1,.13-.12.26.26,0,0,0,.12-.27c-.11-.05-.2-.1-.29-.13a.49.49,0,0,0-.16-.05h-.35a.43.43,0,0,0-.32.2c-.07.11,0,.19.05.27v.05s0,.05-.06.06a.94.94,0,0,0-.42.5,1.5,1.5,0,0,1-.23.33.17.17,0,0,1-.2.05.26.26,0,0,1-.09-.4.27.27,0,0,1,.08-.07c.1-.11.09-.19,0-.31s-.21-.1-.3,0a1.28,1.28,0,0,0-.11.2c-.05.09-.09.18-.19.21,0-.21,0-.21-.12-.32l0-.12c-.11-.06-.22.07-.34,0l.17-.15c.15-.15.13-.21-.05-.32,0,0,0,0,0,0a1.28,1.28,0,0,0,0-.19.28.28,0,0,0-.09-.16.36.36,0,0,0-.45.16.27.27,0,0,1-.13.15c-.07,0-.16.12-.16.18a.61.61,0,0,1-.15.39.15.15,0,0,0,0,.14.33.33,0,0,0,.15.05h.26c.07.15-.06.25-.07.37l.14,0a.44.44,0,0,1-.22.29.92.92,0,0,0-.4.45c0,.06-.06.08-.14.07a1.67,1.67,0,0,0,0-.18s0-.1.05-.16c-.27-.05-.48,0-.56.2a.44.44,0,0,1-.34.28,2.34,2.34,0,0,1-.24.09,5.52,5.52,0,0,1-.54.16c-.23,0-.33,0-.43-.24-.35.16-.54.34-.56.53l.14,0h0l.21-.19,0,0a.34.34,0,0,1-.24.16h0a2,2,0,0,0-.13.25c0,.08,0,.19-.09.26l-.05,0c-.1-.2-.11-.21-.3-.1s-.33.21-.49.32l-.23.13a.13.13,0,0,1,0-.12l.12-.1c.1-.09.1-.11,0-.25l-.25.18a.31.31,0,0,1-.27.09c-.19-.07-.29,0-.4.16s-.07.11-.1.11-.12.06-.16.12l-.09.11-.07-.06-.12.14c.36-.67.75-1.32,1.16-2l0,0-.46.74v0l.13.13.5-.7c.06-.08.11-.18.18-.26a.3.3,0,0,1,.1,0h0c-.07-.08,0-.11.07-.15l-.07.15h0a.69.69,0,0,0-.18.58,2.74,2.74,0,0,1,.67-.43c0,.13-.14.17-.21.23l-.48.43s-.07.07-.07.11,0,.09,0,.14l.12,0,.19-.16c.09,0,.15,0,.18,0a3.54,3.54,0,0,0,1.11-.72c.07-.09.15-.09.28,0s.13.06.18,0a3.49,3.49,0,0,0,.44-.2.2.2,0,0,0,.1-.14c0-.05-.05-.1-.09-.18l.21-.12c.08,0,.17-.06.21-.18l-.19,0-.22-.06a.15.15,0,0,1-.1-.17c0-.14,0-.27,0-.41a.62.62,0,0,1,.18-.42.37.37,0,0,0,.15-.3.57.57,0,0,0-.41.28.37.37,0,0,1-.18.17.36.36,0,0,0-.23.29c0,.11-.05.22-.06.33s0,.15-.14.17.1-.24,0-.36c-.08,0-.16.07-.2.17a.67.67,0,0,1-.16.18l-.09-.11-.15.08-.12.12,0-.09-.08,0,0-.16s-.06,0-.07,0l-.51.33a1.62,1.62,0,0,0-.19.18l.6-.86a.67.67,0,0,0,.21-.09c.08-.08.07,0,.1,0a.78.78,0,0,0,.18-.11c.05,0,.09.06.15.08s0,0,0,0h.2v-.29s0,0,0,0a.28.28,0,0,0,0,.12l0,0,.26-.22a3.62,3.62,0,0,1,.63-.48,1.7,1.7,0,0,0,.6-.59.33.33,0,0,0,0-.14c-.18,0-.21.24-.4.19l0-.2a1.21,1.21,0,0,0-.35.32.13.13,0,0,0,0,.09.31.31,0,0,1-.33.35l-.26,0,.07-.15,0,0a1.71,1.71,0,0,1-.11.14.68.68,0,0,1-.12.12l0,0a2.34,2.34,0,0,1,.14-.27,2.61,2.61,0,0,0-.31.27,30.24,30.24,0,0,1,50.12,3.57.24.24,0,0,0-.3,0l-.22.13a.25.25,0,0,1-.41-.12s0-.11-.05-.16-.11-.31-.17-.46a.73.73,0,0,0-.09-.08l0,0a1,1,0,0,0,.09.62.4.4,0,0,1,.11.33c-.19,0-.31-.2-.52-.15,0,.08,0,.15,0,.23-.05.25-.15.29-.37.17l-.34-.21c0,.13.05.24.08.39-.43-.29-.51-.73-.75-1.14a2.87,2.87,0,0,1,.75.31,1,1,0,0,0,.22.13c.11.05.24.09.34,0a.25.25,0,0,0,0-.34,2.73,2.73,0,0,0-.41-.48c-.58-.46-1.16-.92-1.76-1.36a2.84,2.84,0,0,0-.52-.27.71.71,0,0,1-.42-.3h.14c.07,0,.1-.07.06-.11a1.72,1.72,0,0,0-.31-.24s-.11,0-.17,0l-.11-.19-.23.12a.75.75,0,0,0-.11-.13c-.11,0-.13.2-.28.14,0,0,0-.06,0-.08s.1-.11,0-.17a.48.48,0,0,0-.18,0h0a.37.37,0,0,1-.4-.13l-.07-.05-.14.07,0,.06.17.1c-.19.1-.22-.07-.38,0s-.38-.05-.38.05v.1c-.87,0-.4-.1-.48.07s0,.06,0,.1-.1.13-.14.2c-.18-.09-.38-.15-.44-.34a1.33,1.33,0,0,0-.21,0s-.09,0-.1.05,0,.07,0,.1l0,0a.63.63,0,0,1-.09.14l.59-.08a.69.69,0,0,1-.48.54.58.58,0,0,0-.41.43c-.05.15-.08.3-.12.45a.21.21,0,0,1-.07.13c-.27.24-.45.58-.85.65l0,.08-.26.13-.27.14a.65.65,0,0,0-.34.22,1.45,1.45,0,0,1-.22.21.17.17,0,0,0-.09.18,1.81,1.81,0,0,0,.23.78l0,.11c0,.09-.08.17-.11.26.34,0,.34,0,.33.19l-.07,0c-.15.07-.16.14,0,.24l.25.19a.59.59,0,0,0,.77,0,3.28,3.28,0,0,0,.41-.42,1.47,1.47,0,0,0,.1-.13l.21.25a.19.19,0,0,1,0,.09.5.5,0,0,0,.13.41,2.53,2.53,0,0,1,.2.36,1.92,1.92,0,0,0,.14.36,1,1,0,0,1,.16.48l-.15-.05a.14.14,0,0,0-.11,0,.34.34,0,0,0-.07.47.83.83,0,0,0,.18.13s-.06.08-.09.09a.25.25,0,0,1-.13,0c.16.17.28.15.33,0s0-.1,0-.15a1.85,1.85,0,0,1,.1-.2l.07.08c.11.19.24.22.38.05a.4.4,0,0,1,.45-.16h.05l.24-.35a.46.46,0,0,0,.07-.16s0-.09,0-.1c-.19-.14-.17-.34-.15-.54a.3.3,0,0,1,.26-.31.38.38,0,0,0,.19-.65,2.3,2.3,0,0,0-.34-.28l-.11-.08-.12-.2a.19.19,0,0,1,0-.24c.09-.07.08-.14.06-.23-.05-.24,0-.31.21-.41l.43-.18c.35-.17.38-.24.31-.61s0-.36.28-.35a1.12,1.12,0,0,1,.62.2.71.71,0,0,1,.15.15c.11.16.08.27-.1.32a.55.55,0,0,0-.33.27c-.12.2-.25.39-.52.39a1.05,1.05,0,0,0,.26.69.39.39,0,0,0,.08.52l.1.09c.11.08.25.12.34.25a.3.3,0,0,0,.22.06.82.82,0,0,0,.27,0,1,1,0,0,1,.41,0,.54.54,0,0,0,.5-.08.88.88,0,0,1,.26.42.59.59,0,0,1-.65.05l-.18-.07a.67.67,0,0,0-.52,0c-.14.08-.15.15-.05.28a2.92,2.92,0,0,1,.21.28,2.39,2.39,0,0,1,.13.28c0,.07,0,.16-.07.18a.2.2,0,0,1-.18,0,1.16,1.16,0,0,1-.18-.2c-.14-.15-.24-.14-.33,0a.25.25,0,0,0-.06.14,4.6,4.6,0,0,0-.06.52.57.57,0,0,1-.08.34.82.82,0,0,0-.21.45h-.3c-.05-.07-.07-.15-.12-.17a.5.5,0,0,0-.55,0,.73.73,0,0,1-.38.14.72.72,0,0,0-.28.07c-.14.08-.13.08-.25,0s-.1-.15-.07-.29l-.32.09-.29.11c-.1,0-.18,0-.23-.08a.18.18,0,0,0-.1-.09.43.43,0,0,1-.28-.23.47.47,0,0,1,0-.61l.1-.11a.12.12,0,0,0,0-.19c-.2-.11-.2-.11-.17-.34a2.09,2.09,0,0,0,0-.26l-.36.18a.5.5,0,0,0-.27.66l.09.19c.11.23.22.46.31.7a.21.21,0,0,1-.25.29l-.12,0a.21.21,0,0,0-.14,0,.18.18,0,0,1-.22.06.5.5,0,0,0-.45.15c-.07,0-.12.12-.18.17a.33.33,0,0,0-.13.34c0,.2,0,.26-.19.33l-.67.25c0,.07,0,.15-.07.23a.44.44,0,0,1-.37.33.31.31,0,0,0-.14.09.23.23,0,0,1-.29,0,1.75,1.75,0,0,1-.24-.11.78.78,0,0,0-.49-.07v.53c0,.1-.21,0-.35,0s0-.06-.09-.05a1.75,1.75,0,0,0-.32.12c-.08,0-.09.11,0,.18a.83.83,0,0,0,.23.19,3.63,3.63,0,0,0,.52.19.35.35,0,0,1,.29.3.4.4,0,0,0,.24.32.28.28,0,0,1,.19.32.26.26,0,0,0,0,.15,1.65,1.65,0,0,1-.14.93.07.07,0,0,1,0,.06,1,1,0,0,1-.31.15,3.86,3.86,0,0,1-1,0,.24.24,0,0,1-.24-.19,1.29,1.29,0,0,1-.07-.21c-.24,0-.47,0-.69,0a.51.51,0,0,0-.32.07l-.19.13c-.21.16-.22.18-.12.42a1.07,1.07,0,0,1,.09.56c0,.31-.07.62-.11.93,0,0-.2.06-.21.09-.12.32,0,.36,0,.51v.65c.87,0,.3,0,.35,0s.29,0,.39-.07a.41.41,0,0,1,.52.21l.07.09c.14.26.23.29.51.16l.09-.05a1.39,1.39,0,0,1,.84-.19.33.33,0,0,0,.3-.15,1,1,0,0,1,.23-.23,1.26,1.26,0,0,0,.48-.59.31.31,0,0,1-.08-.42,4.21,4.21,0,0,1,.29-.51.57.57,0,0,1,.36-.24,1.38,1.38,0,0,0,.39-.18.28.28,0,0,0,.12-.36l0-.11a.31.31,0,0,1,.22-.4.55.55,0,0,1,.4,0l.35.11a.42.42,0,0,0,.38-.05c.18-.13.36-.26.53-.4a.32.32,0,0,1,.32-.09.56.56,0,0,1,.33.25c.09.15.17.31.25.47a.91.91,0,0,0,.32.38.9.9,0,0,1,.2.19,1.28,1.28,0,0,0,.45.34,1.78,1.78,0,0,1,.38.25,2.78,2.78,0,0,1,.26.32.66.66,0,0,1,.15.6,1.16,1.16,0,0,1-.14.24c.15.08.2.07.25-.1s.08-.26.26-.3c0-.07-.06-.13-.09-.18l-.09-.11a.2.2,0,0,1,0-.25.23.23,0,0,1,.27-.07.87.87,0,0,1,.18.11l.12.07a.37.37,0,0,0-.15-.33c-.12-.08-.25-.17-.38-.24s-.3-.14-.25-.36h-.19a.38.38,0,0,1-.4-.25c-.05-.12-.09-.24-.13-.35a.71.71,0,0,0-.35-.41.37.37,0,0,1-.21-.44.38.38,0,0,0,0-.15c0-.14,0-.16.1-.23l.24-.11a.83.83,0,0,0,0,.12c0,.16.06.18.23.19l.23,0c0,.06,0,.11,0,.16a2.26,2.26,0,0,0,.3.74.4.4,0,0,0,.34.23l.1.06.17.11a.7.7,0,0,1,.49.7.84.84,0,0,0,.3.69,1.24,1.24,0,0,1,.34.5c0,.12.08.22.23.23a.55.55,0,0,0,.07.6.28.28,0,0,0,.3.11,1.79,1.79,0,0,0,0-.34,2.52,2.52,0,0,0-.14-.35c.22.11.39.22.59,0l-.1-.11-.24-.25s-.06-.09,0-.12,0-.22-.1-.32-.06-.07-.06-.1a.21.21,0,0,1,.05-.13s.08,0,.11,0l.16.15,0,0a1.09,1.09,0,0,1,0-.18.2.2,0,0,1,0-.11.29.29,0,0,1,.47,0l.07.06c.16.15.22.15.35,0a.28.28,0,0,1,.25-.12,1.24,1.24,0,0,0,.23,0,1.29,1.29,0,0,1-.13-.18,1.84,1.84,0,0,1-.17-.22.37.37,0,0,1,0-.39l.08-.13a.6.6,0,0,0,.09-.41.54.54,0,0,1,.18-.54s0-.07,0-.1a.36.36,0,0,1,0-.11l.17-.23c.1-.14.18-.15.29,0s.2.3.3.45.16.26.25.38.1.09.14.08a.86.86,0,0,0,.52-.31,1.79,1.79,0,0,1-.26-.1c-.15-.07-.16-.2,0-.29a2.55,2.55,0,0,1,.57-.29.63.63,0,0,0,0,.24c.06.22,0,.36-.18.43l-.05.05a1.06,1.06,0,0,0,.37.51l.42.35a1.11,1.11,0,0,1,.38.69.34.34,0,0,1-.32.38,2.12,2.12,0,0,1-.44,0,1.29,1.29,0,0,1-.35-.18c-.11-.08-.21-.19-.32-.27a.48.48,0,0,0-.2-.07.68.68,0,0,0-.58.23.39.39,0,0,1-.41.16l-.21,0H324l.05.19-.24,0a2,2,0,0,0-.35.05.41.41,0,0,0-.19.12c-.08.09-.06.17,0,.24a.14.14,0,0,1,.07.06.33.33,0,0,1-.07.33l-.11.11a1.06,1.06,0,0,1,.19.11c.06,0,.13.11.13.17a.54.54,0,0,0,.15.3l.15.23c.15,0,.15,0,.29.11s.23.17.34,0c0,0,0,0,0,0s.16-.14.28,0,.09.1.14.15a.29.29,0,0,0,.46,0,.87.87,0,0,0,.13-.15l.25.07c0,.16,0,.3.06.45a.87.87,0,0,1-.08.61,1.25,1.25,0,0,0-.11.29l-.18.75c0,.16-.13.22-.28.19a.64.64,0,0,1-.21-.09.47.47,0,0,0-.4,0l-.16.07a.7.7,0,0,1-.58.07c-.25-.08-.49-.17-.72-.26a1,1,0,0,0-.41-.11.25.25,0,0,1-.25-.12l-.18-.27a.7.7,0,0,0-.51.07.39.39,0,0,0-.27.39v.25a.32.32,0,0,1-.41.33,1.07,1.07,0,0,1-.47-.22,4.49,4.49,0,0,1-.39-.36,1.32,1.32,0,0,0-1.14-.49.43.43,0,0,1-.35-.14.71.71,0,0,1-.18-.85.38.38,0,0,0,0-.46c-.1-.11-.08-.16,0-.29l.1-.18c-.24.06-.24.06-.38-.11a.26.26,0,0,0-.39,0,.43.43,0,0,1-.5.07.39.39,0,0,0-.38,0l-.17.09a.26.26,0,0,1-.28,0,1,1,0,0,0-.7-.08,6.62,6.62,0,0,0-1.71.62.45.45,0,0,0-.14.1.55.55,0,0,1-.47.16l-.27,0a1.72,1.72,0,0,1-.82-.33,1,1,0,0,0-.14.16,1.22,1.22,0,0,1-.39.48l-.08.09c-.29.37-.58.73-.86,1.11a1,1,0,0,0-.14.38c0,.1,0,.2,0,.29a1.08,1.08,0,0,1-.41.88,1.82,1.82,0,0,1-.7.37.75.75,0,0,0-.49.3,8.82,8.82,0,0,0-.93,1.74,1,1,0,0,1-.21.35.81.81,0,0,0-.21.81l.09.4c0,.13.07.27.1.4a1.77,1.77,0,0,1-.09,1.09,1.89,1.89,0,0,1-.51.76,1.09,1.09,0,0,1,.25.61,1.15,1.15,0,0,0,0,.26.39.39,0,0,0,.06.15,1.71,1.71,0,0,0,.21.26c.23.2.47.39.69.6a4.59,4.59,0,0,1,.36.41,2.11,2.11,0,0,1,.18.33,1.85,1.85,0,0,0,.63.73l.87.6a.76.76,0,0,0,.58.14,1.87,1.87,0,0,0,.41-.09l.43-.16a1.1,1.1,0,0,1,.78,0l.23.06a.43.43,0,0,0,.43-.09,1.32,1.32,0,0,1,.25-.16c.24-.11.49-.22.74-.31a6.73,6.73,0,0,1,.77-.21.49.49,0,0,1,.58.25l.2.32a.32.32,0,0,0,.3.14l.24,0c.15,0,.3,0,.45,0a.5.5,0,0,1,.44.3.18.18,0,0,1,0,.16c0,.13-.08.26-.1.4a1.23,1.23,0,0,1-.23.58.66.66,0,0,0,0,.84,2,2,0,0,0,.22.27c.1.12.21.22.32.33a.65.65,0,0,1,.2.5c0,.17,0,.34.06.51s.06.44.08.65a2.4,2.4,0,0,0,0,.28,1,1,0,0,1-.26.94c-.14.17-.28.33-.41.5a1.54,1.54,0,0,0-.32.7,1.82,1.82,0,0,0,.34,1.36.43.43,0,0,1,.05.41,2,2,0,0,0,.29,1.75c.13.2.17.28,0,.49l0,0c0,.11,0,.2,0,.28a.49.49,0,0,0,.53-.07l.52-.31a.81.81,0,0,1,.43-.16.4.4,0,0,0,.18-.07c.13-.08.24-.18.37-.25a1.88,1.88,0,0,0,.58-.42c.47-.5.92-1,1.37-1.5a.53.53,0,0,0,.1-.12c.06-.11.19-.2.13-.35a.09.09,0,0,1,0-.09,4.85,4.85,0,0,1,.52-.49.89.89,0,0,0,.32-.35c0-.11.09-.21.12-.31a.63.63,0,0,0,0-.27.41.41,0,0,1,.1-.41,1.73,1.73,0,0,0,.23-.24,2.94,2.94,0,0,1,.63-.69,2.69,2.69,0,0,0,.63-.63,1.14,1.14,0,0,0,.18-.41,5,5,0,0,1,.32-1,.45.45,0,0,0,0-.34.62.62,0,0,1,0-.38c0-.14.06-.29.08-.44a1.42,1.42,0,0,1,.27-.74,1.22,1.22,0,0,0,.17-.29,4.54,4.54,0,0,1,.88-1.4,4.82,4.82,0,0,0,.85-1.11c.24-.49.48-1,.71-1.49a5.78,5.78,0,0,0,.39-1.22.34.34,0,0,0,0-.26l-.49.38a.72.72,0,0,1-.28.13.36.36,0,0,0-.25.16,1,1,0,0,1-.15.14,1,1,0,0,1-.16-.78c-.17-.06-.21-.2-.25-.34a.54.54,0,0,0-.24-.38.5.5,0,0,1-.21-.39c0-.1,0-.2,0-.31a.56.56,0,0,0-.22-.48.36.36,0,0,1-.14-.36l0-.51a.23.23,0,0,0,0-.16,1,1,0,0,1-.19-.65,1.77,1.77,0,0,0-.13-.72l-.09-.3c-.14-.43-.29-.85-.43-1.28a.28.28,0,0,1,0-.22,2.55,2.55,0,0,0,.34.73l.11-.18.34.8a1.28,1.28,0,0,1,.15.58.14.14,0,0,0,.07.14c.15,0,.17.16.22.27a2.37,2.37,0,0,1,.09.79.48.48,0,0,0,.27.52,1.76,1.76,0,0,0,.28.87.6.6,0,0,1,.07.45,1.23,1.23,0,0,0-.05.25c0,.23.07.45.09.68s.06.17.19.21c.1-.14.2-.28.31-.41a.18.18,0,0,1,.12-.08.47.47,0,0,0,.31-.2,1.53,1.53,0,0,1,.48-.43.45.45,0,0,0,.14-.1s.07-.08.07-.13a.55.55,0,0,1,.28-.41.65.65,0,0,0,.29-.36c0-.1.12-.18.16-.27a1.85,1.85,0,0,0,.2-.6.24.24,0,0,1,0-.07,2.06,2.06,0,0,0,.25-.57c.09-.2-.07-.37-.09-.56,0,0,0,0,0,0a.39.39,0,0,1-.19-.42v-.31a1.57,1.57,0,0,0-.19.33,1.6,1.6,0,0,1-.21.32.22.22,0,0,1-.28.07c-.1-.05-.13-.12-.11-.27s0-.24.05-.36a.09.09,0,0,0-.07,0l-.05.06a1,1,0,0,0-.08-.23,1.83,1.83,0,0,1-.28-1,2.16,2.16,0,0,1,0-.35c0-.14.13-.16.22-.05a.37.37,0,0,1,.07.12c.06.16.1.33.15.5s0,.16.07.17a.37.37,0,0,1,.22.28.16.16,0,0,0,.18.11.37.37,0,0,0,.31-.2l.1.49.46.06a.74.74,0,0,0,.36,0,30,30,0,0,1-5.2,14.79c.12-.21.24-.43.37-.64.24-.37.36-.8.6-1.17a2,2,0,0,0,.18-.65.37.37,0,0,0,0-.11l-.05,0-.08.15a.84.84,0,0,1-.09.19,5.19,5.19,0,0,1-.86,1.06,1,1,0,0,0-.35.64,1.24,1.24,0,0,1-.22.56,3.21,3.21,0,0,0-.21.3,3,3,0,0,0-.16.31c0,.1-.07.21-.1.31s-.09.19,0,.29l.15,0A30.18,30.18,0,0,1,300.37,421.38Zm-18.55-35.8a1.74,1.74,0,0,1-.22-.18,2.91,2.91,0,0,1-.34.87,1,1,0,0,1-.11-.2,1.19,1.19,0,0,1,0-.22l-.21.08c0-.07,0-.13.05-.18.14-.39.11-.45-.25-.65l-.08,0c0-.3,0-.31-.25-.38a.36.36,0,0,0-.44.1c-.08.1-.13.08-.25,0l-.14-.05c0-.1.05-.2.08-.34a1,1,0,0,1-.16.09l-.49.36a.33.33,0,0,1-.3,0c-.08,0-.12.2-.28.13a1,1,0,0,1,.41-.59,6.48,6.48,0,0,1,.57-.33.38.38,0,0,0,.21-.22c.07-.18.1-.19.27-.1l.07,0,.06-.28c.07,0,.11,0,.15.05a5.07,5.07,0,0,1,.36.45.6.6,0,0,1,.06.3c0,.31,0,.39.33.5a1.46,1.46,0,0,1,.54.31s.08,0,.12,0h.16a.32.32,0,0,1,.33.31C282,385.57,281.94,385.64,281.82,385.58Zm.13,1.1c-.12.07-.22.14-.33.19a2.21,2.21,0,0,1-.35.16c-.19.06-.23,0-.28-.18a.58.58,0,0,0,.18,0c.05,0,.09-.07.13-.12A.59.59,0,0,1,282,386.68Zm-1.84-.87a5.81,5.81,0,0,1,0,.59,2.64,2.64,0,0,1-.14.48c-.07.15-.15.19-.25.16a.26.26,0,0,1-.19-.29,3.73,3.73,0,0,1,.07-.56c.05-.23.12-.46.2-.73l-.17.15c0-.32.42-.58.84-.56,0,.19,0,.34-.25.39,0,0-.08.09-.09.14A1.69,1.69,0,0,0,280.11,385.81Zm2,.36a2.78,2.78,0,0,1,1.27-.4.31.31,0,0,1-.18.28,1.22,1.22,0,0,1-.27.09l-.23,0ZM276.34,373c0,.16,0,.18-.17.22A.3.3,0,0,1,276.34,373Zm.08,0,.1-.15,0,0-.12.14Z" transform="translate(-268.34 -359.12)"/><path class="cls-2" d="M304.91,370.87a.21.21,0,0,0-.15-.07l-.41-.05-.69-.13a.24.24,0,0,1-.2-.16c.09-.07.22,0,.27-.16l-.13-.23a.59.59,0,0,1,.61.16l.12.13a.77.77,0,0,0,.68.27c.19,0,.23-.08.18-.26a.81.81,0,0,0-.36-.47c-.17-.12-.36-.21-.54-.32l-.42-.24c-.07,0-.12-.1-.06-.19a.19.19,0,0,1,.22.08,1.31,1.31,0,0,0,.62.39c.14,0,.22,0,.26-.07a.26.26,0,0,0,0-.3l-.11-.12.27-.1.27-.06c.08,0,.16-.07.18-.16l-.12-.16c.2-.07.41,0,.55-.26l-.26-.06a.56.56,0,0,1-.18-.07.15.15,0,0,1-.07-.12s.06-.06.1-.07l.24,0c0-.22,0-.22-.09-.39l-.06-.07c0-.13-.12-.15-.23-.16a.36.36,0,0,1-.18-.07.09.09,0,0,1,0-.17l.21,0,.51,0c.12,0,.29.05.32-.11s-.15-.17-.26-.21l-.22-.08,0-.05.14-.06a1.27,1.27,0,0,0-.84-.2.38.38,0,0,1,.3-.42.64.64,0,0,0,.26-.13.52.52,0,0,0,.08-.23l.21,0c.16,0,.29-.05.32-.21s.41,0,.48-.21l1-.21c.06,0,.14,0,.16-.11a.1.1,0,0,0,0-.05,2.14,2.14,0,0,0-.74-.28.34.34,0,0,0-.1,0,.86.86,0,0,1-.55,0,1,1,0,0,0-.39,0,.69.69,0,0,1-.25,0l-.81-.08a.43.43,0,0,0-.31.08c-.22.15-.46.27-.69.4a.47.47,0,0,1-.16,0,.89.89,0,0,1,.2-.19l.39-.26c.11-.09.11-.18,0-.25a.39.39,0,0,0-.18-.06,1.14,1.14,0,0,0-.37,0c-.26.06-.51.15-.77.23l-.25.06,0-.05.37-.25,0-.05c-.69,0-1.38,0-2.07,0,.23,0,.45,0,.67,0l2.29,0a1.74,1.74,0,0,0,.39-.05.83.83,0,0,0,.13-.07v0a1,1,0,0,0-.17,0,5.82,5.82,0,0,1-1.54-.34,6,6,0,0,0-.85,0c-.16,0-.33.1-.49.1H300c-.14,0-.29-.12-.44-.09a11.37,11.37,0,0,1-1.65.15.39.39,0,0,0-.15,0c-.18,0-.36,0-.54,0s-.16,0-.24,0a3.81,3.81,0,0,0-1.11.2.38.38,0,0,1,0,.1l-.17,0-.17.06v0a1.29,1.29,0,0,0,.16.09l.23.07a1.26,1.26,0,0,1-.67,0,1.65,1.65,0,0,0-.73-.05.33.33,0,0,0-.18.07s0,.1-.05.15a.88.88,0,0,1-.58,0,.13.13,0,0,0-.18.09s0,.06,0,.11a.54.54,0,0,1-.17-.08.37.37,0,0,0-.35-.05l-.42.12-.42.14-1,.27a.29.29,0,0,0-.23.17.43.43,0,0,1-.48.25.51.51,0,0,0-.22.06l-1.05.51-.23.11s0,.06-.06.1c.26.08.5,0,.76,0a.62.62,0,0,1-.18.28,1.18,1.18,0,0,1-.64.27,2.41,2.41,0,0,0-.6.16,6.71,6.71,0,0,1-1,.4.4.4,0,0,0-.15.09,1.12,1.12,0,0,0-.1.16l.17.06a2.87,2.87,0,0,0,1.13,0l.42-.08h.12v0a.51.51,0,0,1-.17.07l-.42.08-.16.07a1.79,1.79,0,0,1-.24.12c-.1,0-.22,0-.32.06a.29.29,0,0,0-.24.16c.13,0,.24-.06.36-.09a.69.69,0,0,1,.39.07l-.22.16a1,1,0,0,0,.65.07c.08,0,.17,0,.16-.13a.55.55,0,0,1,.28,0,.64.64,0,0,0,.47,0,.41.41,0,0,1,.18-.05,6.49,6.49,0,0,1,.74-.09,2.17,2.17,0,0,1,1.29.33,1.28,1.28,0,0,1,.56.77,3.16,3.16,0,0,1,0,.32h.08c.08,0,.17,0,.2.09s0,.17-.09.24l-.1.09a.47.47,0,0,0-.09.12c-.06.13,0,.22.13.23a.39.39,0,0,0,.38-.12.32.32,0,0,1,.41,0,.58.58,0,0,1,.12.1,1.31,1.31,0,0,0,.5.38.15.15,0,0,1-.16.16l-.43-.07a1.62,1.62,0,0,0-.54,0c0,.16.16.16.23.23h0l1.15.15-.46.74-.2,0a1.2,1.2,0,0,0-.51.35c-.1.11-.2.45-.31.55s-.15-.32-.09.55h.05v-.26s.22.26.23.26h0c-.12,0-.1.22.15.45s.21.14.23.3a.25.25,0,0,0,0,.09c0,.12.09.13.22.09s.1-.06.15-.07a.12.12,0,0,1,.16,0c-.22.21-.24.31-.1.58a.82.82,0,0,0,.12.2c.14.17.29.33.45.49a.39.39,0,0,1,.12.19.19.19,0,0,0,.17.19.55.55,0,0,1,.35.28l.14,0,.29-.11a.3.3,0,0,1,.43.16,1,1,0,0,1,.1.17c.13.21.21.24.43.15s.11,0,.18,0a.22.22,0,0,0,.37-.08c0-.09.06-.19.09-.28a1.09,1.09,0,0,1,.11-.27.51.51,0,0,0,.14-.42c0-.11,0-.21,0-.31a.36.36,0,0,1,.27-.4,1.15,1.15,0,0,0,.25-.12.27.27,0,0,0,.08-.44l-.07-.11c0-.07.09-.14.08-.2,0-.23.12-.32.29-.37l.48-.13a.64.64,0,0,0,.44-.29.65.65,0,0,1,.11-.12.82.82,0,0,0,.19.06,2,2,0,0,0,.84-.14.86.86,0,0,0,.45-.37,2.78,2.78,0,0,1,.75-.7.45.45,0,0,0,.13-.11.2.2,0,0,1,.21-.1,2,2,0,0,0,.49,0,7.46,7.46,0,0,1,1-.1,1.43,1.43,0,0,0,.78-.24,1.86,1.86,0,0,1,.86-.34A1.21,1.21,0,0,0,304.91,370.87ZM304.3,369h.08l.08.08-.11,0-.06,0Z" transform="translate(-268.34 -359.12)"/><path class="cls-3" d="M271.59,382.47h0s0-.06,0-.09A.13.13,0,0,0,271.59,382.47Z" transform="translate(-268.34 -359.12)"/><path class="cls-4" d="M289.44,373.16h-.17c-.06,0-.14,0-.16-.05s-.18-.08-.28-.05l-.11,0c-.16,0-.23,0-.27-.17a1.36,1.36,0,0,1,0-.17,1.28,1.28,0,0,1-.35-.08,1,1,0,0,1-.27-.24c-.05,0-.14-.23-.22-.25.07-.2.28.29.4-.58h-.48c.1,0,.29.07.39,0-.06-.25-.25-.12-.44-.09,0-.11-.07-.08-.17-.1s-.33,0-.5,0-.09,0-.1,0-.18-.1-.29-.09l-.34.06a.36.36,0,0,1-.42-.17.49.49,0,0,0-.11-.14.34.34,0,0,0-.16-.1c-.36,0-.74-.08-1,.24l-.06.05a.18.18,0,0,1-.2,0s-.11,0-.17,0a.25.25,0,0,0-.11,0,2.36,2.36,0,0,0,.12-.26,2.47,2.47,0,0,0,.47-.12.84.84,0,0,1,.47-.11.31.31,0,0,0,.31-.2,1,1,0,0,0-.68-.14,1.06,1.06,0,0,1-.25,0,.46.46,0,0,0-.45.23.72.72,0,0,0-.48.06,2.22,2.22,0,0,0-.8.43.43.43,0,0,0-.18.41c0,.14-.13.28-.31.3a1.42,1.42,0,0,0,0-.29.23.23,0,0,1,.07-.21l.29-.26c.05-.05.13-.09.14-.19a.74.74,0,0,0-.3,0,1.49,1.49,0,0,0-.88.72c0,.05-.09.09-.13.15a2.53,2.53,0,0,0-.21.32.35.35,0,0,0,0,.33l.39,0c0,.06,0,.09,0,.11a.13.13,0,0,1-.09,0c-.08,0-.16,0-.22.05.21.21.43,0,.65,0,.09.17.21.18.38.14.37-.1.74-.17,1.11-.25l.27,0c0,.05,0,.08,0,.12a.19.19,0,0,0,0,.08.23.23,0,0,0,.23-.09l.3-.3a.19.19,0,0,1,.25,0l.55.35a1.52,1.52,0,0,0-.25.17.13.13,0,0,0,0,.12.16.16,0,0,0,.12,0,1.19,1.19,0,0,0,.15-.09.37.37,0,0,1,.35,0,1.28,1.28,0,0,1,.54.37c.13.17.15.26,0,.42a1.08,1.08,0,0,1-.55.48c-.14,0-.14.14,0,.24a.78.78,0,0,0,0,.07l-.37.09c-.17,0-.35.06-.52.09a.87.87,0,0,0-.57.4.16.16,0,0,0,0,.22.43.43,0,0,0,.55.05s.07-.07.11-.08.12,0,.16,0a.21.21,0,0,0,.25-.05.75.75,0,0,0,.14-.12l.79.48c0,.21,0,.25.22.3l.17,0a2.09,2.09,0,0,1,.36.07,1.58,1.58,0,0,0,.51.12c.2,0,.41,0,.53.22.17-.11.2-.21.1-.34a.91.91,0,0,0-.21-.18l-.37-.22a1.2,1.2,0,0,1-.17-.16c.14,0,.13,0,.2,0a1.12,1.12,0,0,0,.28.16,1.62,1.62,0,0,0,.38.09c.42.07.48,0,.64-.36v0c.05-.12,0-.15-.08-.19a.16.16,0,0,1-.1-.16l0,0H288a.32.32,0,0,0-.27-.26.2.2,0,0,1-.15-.16,1.09,1.09,0,0,1-.07-.24.51.51,0,0,0-.23-.37.45.45,0,0,1,.68,0l.22.27a.63.63,0,0,0,.33.2c.21,0,.29,0,.36-.21a.57.57,0,0,0,0-.14.32.32,0,0,0,.33-.32l.16,0,.14-.07a.2.2,0,0,0,.08-.24C289.6,373.2,289.53,373.17,289.44,373.16Z" transform="translate(-268.34 -359.12)"/><path class="cls-5" d="M281.16,369l.19,0-.06.09c.11,0,.18-.15.28-.05l-.12.18c.08,0,.18,0,.18,0,0,.19.14.08.2,0a4.32,4.32,0,0,0,.55-.25c.11.07.45,0,.45-.1V369h-.11c.11,0,.22-.13.36-.22a.24.24,0,0,0,.21.3s-.08,0-.1,0a.71.71,0,0,0-.47-.09l0,0h0v0c-.07.21-.21.09-.2.25l.17.09c-.12.06-.23.1-.33.16s-.24.16-.35.25a.29.29,0,0,0-.05.13.83.83,0,0,1,.4-.11,1.87,1.87,0,0,0,.8-.13,3.3,3.3,0,0,1,1-.25l.13,0c.24-.12.48-.24.72-.38a.47.47,0,0,0,.14-.14l0,0-.34.05c0-.14.14-.17.24-.21a.56.56,0,0,0,.23-.12.32.32,0,0,1,.21-.13,1,1,0,0,0,.32-.13,7.56,7.56,0,0,0,.56-.57l-.11-.16c.14-.06.26-.12.28-.28a.06.06,0,0,1,.05-.05,3,3,0,0,1,.57-.21,1.25,1.25,0,0,0,.53-.22l.27-.2a3.55,3.55,0,0,1,1-.54c.28-.1.56-.22.83-.33l.17-.1v0l-.58.11v0l.36-.13.4-.11.37-.1a2.17,2.17,0,0,0,.38-.16c.11-.06.26,0,.35-.19l-.18,0-.33,0a.31.31,0,0,1-.17,0,.57.57,0,0,0-.46,0l-.4.14-.15,0a2.67,2.67,0,0,0-.4,0c-.21,0-.41.08-.62.12s-.45.12-.68.16a.84.84,0,0,0-.38.15.39.39,0,0,1-.33.08.42.42,0,0,0-.19,0l-.44.14a3.08,3.08,0,0,0-1.07.45l-.09,0a1,1,0,0,0-.48.29.6.6,0,0,1-.43.2.7.7,0,0,0-.43.17,1.8,1.8,0,0,1-.58.35,2.82,2.82,0,0,0-.78.43l-.08.09,0,0,.23-.16a.3.3,0,0,0,.37.15c.12,0,.23-.11.35-.16s.12-.09.17-.07a.54.54,0,0,0,.49-.11.21.21,0,0,1,.11,0,3,3,0,0,0,.9-.42l.13-.06,0,0s-.05,0-.07,0a2,2,0,0,1-.74.39.27.27,0,0,0-.21.15,1.19,1.19,0,0,0,.15.09v0a.81.81,0,0,0-.61,0,.92.92,0,0,0-.53.35,1.74,1.74,0,0,1,.23,0l.23,0a.68.68,0,0,1-.61.41c.08-.19.35-.13.47-.33a1,1,0,0,0-.52.1.39.39,0,0,0,0-.31c-.15,0-.2.12-.28.22l0-.13-.36.12c0-.06,0-.25-.06-.3-.33,0-.56.3-.8.3h.17c-.14,0-.32.24-.42.41.06,0,.11.09.21.11-.16.07-.28.16-.4.21S281.16,368.94,281.16,369Zm1.49-.25.15,0-.11.14-.05,0S282.65,368.74,282.65,368.7Zm-.74.1,0,0-.17.09,0-.05Z" transform="translate(-268.34 -359.12)"/><path class="cls-6" d="M311.49,378.26a.3.3,0,0,0,.23.23c.14.06.14.08,0,.19a.27.27,0,0,0-.06.1.53.53,0,0,1,.17.45.75.75,0,0,0,0,.21s0,.05.09.08,0-.18,0-.27l.19,0a.35.35,0,0,1,0,.39c-.08.12,0,.2.11.21a1.06,1.06,0,0,0,.25,0h.22c-.06.11-.1.21,0,.28a1,1,0,0,0,.26.1.16.16,0,0,1-.09.24l-.46.2c0,.05,0,.12.07.18s.07.26-.12.39a.51.51,0,0,0-.16.13s0,.08,0,.11.06,0,.08,0,.21,0,.3.06a.3.3,0,0,0,.36,0l.07,0c0,.12,0,.15-.11.16l-.26,0a.48.48,0,0,0-.21.07,4.17,4.17,0,0,0-.38.34.75.75,0,0,0-.08.14l.61,0c.1-.27.12-.27.38-.22a.69.69,0,0,0,.35,0,2.34,2.34,0,0,1,.87-.07.6.6,0,0,0,.19,0,.18.18,0,0,0,.11-.1.24.24,0,0,0,0-.16.36.36,0,0,0-.13-.08l.16-.14.16-.14a.27.27,0,0,0,.06-.32.28.28,0,0,0-.26-.18h-.17a.26.26,0,0,0-.07-.28.41.41,0,0,1-.07-.15.56.56,0,0,0-.25-.36,1.4,1.4,0,0,1-.57-.68.3.3,0,0,0-.34-.21l-.15,0a.7.7,0,0,1,.2-.4.63.63,0,0,0,.16-.64,5.32,5.32,0,0,1-.8-.12c.07-.05.14-.07.2-.11s.06-.06.09-.09-.07-.08-.1-.08l-.45,0c-.1,0-.16.06-.19.17s0,.14-.08.16-.14.14-.09.26C311.71,378.26,311.62,378.19,311.49,378.26Z" transform="translate(-268.34 -359.12)"/><path class="cls-7" d="M304.56,373.58a3,3,0,0,1,.52,0h-.52Z" transform="translate(-268.34 -359.12)"/><path class="cls-8" d="M307.88,374.32a1.18,1.18,0,0,0,.49-.3c.13-.13.13-.23,0-.35l-.11-.07a1.46,1.46,0,0,1-.24-.17,1.57,1.57,0,0,1-.1-.26.86.86,0,0,1-.23,0,.52.52,0,0,1-.21-.07c-.13-.09-.12-.1-.26,0l0,0-.52,0c-.13,0-.26-.1-.38,0s0,0-.08,0H306a.37.37,0,0,1-.39-.08c0,.17-.07.19-.17.21a.22.22,0,0,1-.24-.13l-.08-.13a.16.16,0,0,0-.21-.1l-.5.14.2.13.41.13c.06,0,.13-.06.14.05s0-.06-.07-.06h0a2.71,2.71,0,0,0-.09.57,2.79,2.79,0,0,1,.25.17,3.73,3.73,0,0,0,1.28.43,1.87,1.87,0,0,0,1-.11A3.18,3.18,0,0,1,307.88,374.32Z" transform="translate(-268.34 -359.12)"/><path class="cls-9" d="M292.2,383.48c0-.08-.08-.14-.11-.21s.25-.13.29-.2,0,0,0-.05v-.08h-.79c0-.87,0-.3,0-.37-.19,0-.37-.11-.55-.13a.84.84,0,0,1,.15-.38,1.56,1.56,0,0,0,.17-.37.14.14,0,0,0-.22-.17.61.61,0,0,0-.24.21c-.16.27-.3.53-.45.8a1.59,1.59,0,0,1-.46.57l0,0,.09.11-.19.2c-.05.05-.09.1,0,.15a.2.2,0,0,0,.15.08.41.41,0,0,0,.18-.05.61.61,0,0,1,.42,0,.65.65,0,0,0,.39,0,.37.37,0,0,1,.18,0l.18.06a1.62,1.62,0,0,0,0,.22.28.28,0,0,0,.29-.13l.22-.28a.9.9,0,0,1,0,.16c0,.21.21.22.28.36a.23.23,0,0,0,.13,0,.45.45,0,0,0,.1-.14.41.41,0,0,0-.06-.45Z" transform="translate(-268.34 -359.12)"/><path class="cls-10" d="M316.1,368a.62.62,0,0,0,.33.11c.05,0,.1-.09.18-.16l.34.22v0l-.53.05a1.15,1.15,0,0,0,.18.16,1.17,1.17,0,0,0,.2.06.56.56,0,0,1,.32.15l-.46-.1a2.22,2.22,0,0,0,1,.69.78.78,0,0,1,0-.22c0-.06.1-.1.17-.17s0-.08,0-.14.16-.27.33-.12a4.26,4.26,0,0,1,.35.38.83.83,0,0,0,0,.15c.18.1.41.1.5.33l.36-.19a.42.42,0,0,1-.39-.3.31.31,0,0,0-.2-.19,3.23,3.23,0,0,1-.41-.22l-.67-.4a.31.31,0,0,1-.09-.07.25.25,0,0,0-.29-.16.7.7,0,0,0-.65-.36c0,.07.07.15.11.22a.81.81,0,0,1-.18-.12.62.62,0,0,0-.18-.14c-.11,0-.12,0-.2.09-.05,0-.13-.08-.13-.11s-.06-.1-.11-.12a2.13,2.13,0,0,0-.33-.11.27.27,0,0,0-.29.08l.06.06C315.65,367.54,315.87,367.76,316.1,368Z" transform="translate(-268.34 -359.12)"/><path class="cls-11" d="M310.48,381.47a.41.41,0,0,0,.49-.06.68.68,0,0,1,.54-.22.16.16,0,0,0,.17-.24,1.17,1.17,0,0,1-.09-.52c0-.19,0-.2.17-.26a.16.16,0,0,0,.11-.2c0-.2-.09-.4-.31-.46a.65.65,0,0,0-.68.1.15.15,0,0,0-.05.19s0,.07.05.1a.66.66,0,0,1-.37.13c-.13,0-.17.06-.14.18a.44.44,0,0,0,.1.16,1.75,1.75,0,0,0,.18.15,2.29,2.29,0,0,1-.16.23,1.3,1.3,0,0,0-.15.18A.35.35,0,0,0,310.48,381.47Z" transform="translate(-268.34 -359.12)"/><path class="cls-12" d="M280.93,370.34l.13.26-.06.07s-.1.1-.06.16a.27.27,0,0,0,.17.08.55.55,0,0,0,.51-.18,1,1,0,0,1,.19-.16l0,0s0,0,0,0,0,.17.18.12l.12,0,.4-.17a1.64,1.64,0,0,0,.69-.27.84.84,0,0,0,.26,0,4.3,4.3,0,0,0,.57-.2,1.51,1.51,0,0,0,.26-.2s0-.07,0-.08,0-.11.05-.18-.22-.1-.34-.09a3.1,3.1,0,0,0-1.06.4,1.94,1.94,0,0,1-.75.33.89.89,0,0,0-.3.07v-.08l-.34,0c0-.05-.11-.1-.15-.16a2.13,2.13,0,0,1-.33.11.41.41,0,0,1-.22,0,.54.54,0,0,0-.58.1s0,.07-.08.11A.74.74,0,0,0,280.93,370.34Z" transform="translate(-268.34 -359.12)"/><path class="cls-13" d="M283.64,396.27s-.05,0-.07,0a.83.83,0,0,0-.16-.09,1.14,1.14,0,0,1-.65-.4c-.05-.05-.11-.12-.17-.13a2.65,2.65,0,0,1-.72-.24,1.28,1.28,0,0,0-.75-.07.78.78,0,0,0-.58.59c.09,0,.15,0,.21-.06l.29-.22c.19-.11.29-.06.33.16s.05.17.2.19l.48.08a.41.41,0,0,0,.19,0,.22.22,0,0,1,.29.08.65.65,0,0,0,.39.24l.14.05c0,.08,0,.14,0,.19a1.89,1.89,0,0,0,.7.14.3.3,0,0,0,.3-.15C284,396.45,283.86,396.28,283.64,396.27Z" transform="translate(-268.34 -359.12)"/><path class="cls-14" d="M282.93,375.76l-.29-.09c-.07,0-.15-.05-.15-.14s-.13-.22-.27-.25l-.32-.08-.24-.07-.07-.17a.4.4,0,0,0-.27.25,1.86,1.86,0,0,0-.16.45.63.63,0,0,1-.23.4.77.77,0,0,0-.15.16s0,0,0,0a1.48,1.48,0,0,0,.32-.06v.23c0-.08.36-.13.48-.22a2.85,2.85,0,0,0,.36-.34c.16.06.27.29.51.21A.84.84,0,0,0,282.93,375.76Z" transform="translate(-268.34 -359.12)"/><path class="cls-15" d="M285.16,396.71a.66.66,0,0,1-.53,0,.15.15,0,0,0-.15,0c-.05,0,0,.13,0,.16s.13.22.17.38l-.41,0a.23.23,0,0,0-.15,0s0,.1,0,.15,0,0,.05.05.07-.05.1-.05a5.52,5.52,0,0,1,.58,0c.05,0,.1.06.13.1s.15.16.25,0,.11-.14.22-.12a.2.2,0,0,0,.19-.08.23.23,0,0,1,.21-.08h.3a2.87,2.87,0,0,0-.6-.48A.62.62,0,0,0,285.16,396.71Z" transform="translate(-268.34 -359.12)"/><path class="cls-16" d="M276.47,373.21l0,.06.16-.09v-.11c-.07,0-.15.06-.13.13h0S276.49,373.2,276.47,373.21Z" transform="translate(-268.34 -359.12)"/><path class="cls-17" d="M276.66,373.2v0h0Z" transform="translate(-268.34 -359.12)"/><path class="cls-18" d="M318,368l-.13.06a.35.35,0,0,0,.21.17,2.28,2.28,0,0,1,.69.32.54.54,0,0,0,.48.08l.28-.07a1.43,1.43,0,0,0-.84-.54c-.09,0-.15,0-.18-.12s-.1-.11-.16-.07-.16,0-.23,0l-.26-.17c-.09-.05-.17-.12-.29-.08s-.07,0-.11,0l-.24-.07C317.33,367.79,317.65,367.87,318,368Z" transform="translate(-268.34 -359.12)"/><path class="cls-19" d="M279.38,372.24l.13-.19h-.09c-.18.07-.36.07-.53.15s-.23.22-.33.22h.16c-.09.46-.09.35-.31.28-.1.2-.08.28.12.3a.29.29,0,0,1,.3.23l.15-.11a.58.58,0,0,1,.19-.16.76.76,0,0,0,.36-.51l-.09,0C279.42,372.36,279.4,372.31,279.38,372.24Z" transform="translate(-268.34 -359.12)"/><path class="cls-20" d="M281.21,371.28l0,0-.71.17a.56.56,0,0,0-.35.27c0,.07-.08.16-.19.18s-.06.07-.09.12,0,.36,0,.54c.16,0,.22-.13.32-.21a.09.09,0,0,0,0-.13c0-.06,0-.1.08-.1a.64.64,0,0,0,.46-.23l.46-.47Z" transform="translate(-268.34 -359.12)"/><path class="cls-21" d="M292.58,371a.3.3,0,0,0-.29.22.44.44,0,0,0,.13.39.14.14,0,0,0,.11,0l.59-.09a.25.25,0,0,0,.21-.18l-.55-.38h-.2Z" transform="translate(-268.34 -359.12)"/><path class="cls-22" d="M294.24,405.25l-.33-.18a.26.26,0,0,0-.34.11.24.24,0,0,0,.07.34,1.45,1.45,0,0,0,.26.17.35.35,0,0,0,.53-.16c0-.08.09-.17,0-.26S294.31,405.26,294.24,405.25Z" transform="translate(-268.34 -359.12)"/><path class="cls-23" d="M317.52,387.73c0,.15,0,.31.09.33s.22-.06.3-.19a1,1,0,0,0,0-.75.19.19,0,0,0-.31,0l-.15.13A.43.43,0,0,1,317.52,387.73Z" transform="translate(-268.34 -359.12)"/><path class="cls-24" d="M318.85,388.71a1.16,1.16,0,0,1,.44.23l.33.21c.1.06.18,0,.15-.1a.7.7,0,0,1,0-.38.44.44,0,0,0,0-.15,1.42,1.42,0,0,0-.22.05.39.39,0,0,1-.35,0,.53.53,0,0,0-.46,0C318.73,388.68,318.79,388.7,318.85,388.71Z" transform="translate(-268.34 -359.12)"/><polygon class="cls-25" points="10.76 12.28 10.77 12.28 10.77 12.28 10.77 12.27 10.77 12.27 10.76 12.28"/><path class="cls-26" d="M279.91,370.68h-.06a1.18,1.18,0,0,1-.51.23l-.1.05s0,0,0,.06h.12c0,.16-.13.12-.21.15l0,.13s0,0,0,.07l.15-.09c-.06.12-.12.2-.18.32a2.1,2.1,0,0,0,.52-.26s0,0,0-.07a3.3,3.3,0,0,0,.18-.32C279.86,370.88,280,370.8,279.91,370.68Z" transform="translate(-268.34 -359.12)"/><path class="cls-27" d="M278.61,374.09a.47.47,0,0,1-.25.23s0,0-.07.08l.37,0a.46.46,0,0,0,.51-.26.6.6,0,0,0-.06-.11C278.93,373.81,278.77,373.82,278.61,374.09Z" transform="translate(-268.34 -359.12)"/><path class="cls-28" d="M279.51,370.31c.05,0,.11,0,.15,0s.21,0,.3-.1a.51.51,0,0,0,0-.09c-.11,0,0-.13-.06-.21l-.13.06s-.08.05-.1,0-.12,0-.17,0a.44.44,0,0,1-.16.06.79.79,0,0,0-.37.26l.12,0-.12.14A4.77,4.77,0,0,0,279.51,370.31Z" transform="translate(-268.34 -359.12)"/><path class="cls-29" d="M285,373.32a.11.11,0,0,0-.05-.15.48.48,0,0,0-.49,0,.37.37,0,0,0-.14.44,1.32,1.32,0,0,0,.53-.1A.58.58,0,0,0,285,373.32Z" transform="translate(-268.34 -359.12)"/><path class="cls-30" d="M280.39,370.81l-.41.39,0,.05h.21c.26,0,.36-.12.44-.3s0-.2-.15-.19S280.42,370.78,280.39,370.81Z" transform="translate(-268.34 -359.12)"/><path class="cls-31" d="M289.3,384.37c.09-.19.09-.19,0-.31a1,1,0,0,0-.3.42.16.16,0,0,0,0,.19.31.31,0,0,0,.44-.19.14.14,0,0,0,0-.06Z" transform="translate(-268.34 -359.12)"/><path class="cls-32" d="M287.91,382.58a1.47,1.47,0,0,0,.66.38.23.23,0,0,0,.24-.1C288.53,382.68,288.28,382.47,287.91,382.58Z" transform="translate(-268.34 -359.12)"/><path class="cls-33" d="M280.38,370l.39-.21a.33.33,0,0,0,.2-.27h-.24a.41.41,0,0,0-.4.23C280.41,369.88,280.41,369.88,280.38,370Z" transform="translate(-268.34 -359.12)"/><path class="cls-34" d="M277.33,371.84s0,.07,0,.1l0,0a2.9,2.9,0,0,0,.75-.88.46.46,0,0,0-.17.09C277.66,371.34,277.53,371.63,277.33,371.84Z" transform="translate(-268.34 -359.12)"/><path class="cls-35" d="M317.76,386.23l-.24.15a1.49,1.49,0,0,0,.2.53A.79.79,0,0,0,317.76,386.23Z" transform="translate(-268.34 -359.12)"/><path class="cls-36" d="M282,376.36c-.11.15-.32.22-.36.48a1.18,1.18,0,0,0,.62-.49A.2.2,0,0,0,282,376.36Z" transform="translate(-268.34 -359.12)"/><path class="cls-37" d="M283.28,397.33l-.31-.11c-.06,0-.14,0-.19,0s0,.17.1.21l.15,0,.35-.06C283.33,397.38,283.31,397.34,283.28,397.33Z" transform="translate(-268.34 -359.12)"/><path class="cls-38" d="M306,367.89a.12.12,0,0,0,0,.21.39.39,0,0,0,.47-.08s-.1,0-.13,0a.36.36,0,0,1-.07-.1A.3.3,0,0,0,306,367.89Z" transform="translate(-268.34 -359.12)"/><path class="cls-39" d="M272,385a.83.83,0,0,0-.35-.54l0,.24a1.66,1.66,0,0,0,.16.21C271.85,385,271.92,385,272,385Z" transform="translate(-268.34 -359.12)"/><path class="cls-40" d="M286.78,397.44a.11.11,0,0,0,.05.11.54.54,0,0,0,.51,0,.73.73,0,0,0-.47-.19A.11.11,0,0,0,286.78,397.44Z" transform="translate(-268.34 -359.12)"/><path class="cls-41" d="M281.9,381.37l-.1,0c-.11,0-.13.15,0,.22a.35.35,0,0,0,.29.06,1.28,1.28,0,0,0,0-.19C282.07,381.37,282,381.34,281.9,381.37Z" transform="translate(-268.34 -359.12)"/><path class="cls-42" d="M282.73,376.63c0,.09,0,.15.16.24l.2-.29C282.92,376.48,282.8,376.5,282.73,376.63Z" transform="translate(-268.34 -359.12)"/><path class="cls-43" d="M278.51,371.54a.3.3,0,0,0,.37,0c.07-.06.15-.1.22-.15l-.31,0A.25.25,0,0,0,278.51,371.54Z" transform="translate(-268.34 -359.12)"/><path class="cls-44" d="M325.09,390.14a.3.3,0,0,0,.22-.14l.1-.22a1.15,1.15,0,0,0-.47.23C325,390.1,325,390.15,325.09,390.14Z" transform="translate(-268.34 -359.12)"/><path class="cls-45" d="M326.21,375.84a.68.68,0,0,0-.32-.41c-.11.08-.06.17,0,.23A.35.35,0,0,0,326.21,375.84Z" transform="translate(-268.34 -359.12)"/><path class="cls-46" d="M311.47,378.07a.25.25,0,0,0,.11-.26.71.71,0,0,0-.23.05.11.11,0,0,0-.06.18A.11.11,0,0,0,311.47,378.07Z" transform="translate(-268.34 -359.12)"/><path class="cls-47" d="M281.31,369.66a1.24,1.24,0,0,0-.62.3C280.91,369.89,281.17,369.9,281.31,369.66Z" transform="translate(-268.34 -359.12)"/><path class="cls-48" d="M289,401h.12c0-.09.15-.15.12-.27C289.07,400.69,289,400.76,289,401Z" transform="translate(-268.34 -359.12)"/><path class="cls-49" d="M285.44,373.22c0-.09-.1-.14-.18-.12s-.17.06-.16.18A.42.42,0,0,0,285.44,373.22Z" transform="translate(-268.34 -359.12)"/><path class="cls-50" d="M320.28,378.89c-.18.06-.21.11-.17.39C320.27,379.18,320.23,379,320.28,378.89Z" transform="translate(-268.34 -359.12)"/><path class="cls-51" d="M317.62,380c0,.17.17.13.21.28C317.88,380,317.84,380,317.62,380Z" transform="translate(-268.34 -359.12)"/><path class="cls-52" d="M321.22,379c.07,0,.1-.08.07-.19s0,0,0-.06l-.16.08C321.13,378.93,321.16,379,321.22,379Z" transform="translate(-268.34 -359.12)"/><path class="cls-53" d="M315.63,387.79c.07-.08,0-.13-.06-.2l-.17.09C315.51,387.82,315.59,387.85,315.63,387.79Z" transform="translate(-268.34 -359.12)"/><path class="cls-54" d="M315.41,367.61a.82.82,0,0,0,.38.31l0,0-.37-.32Z" transform="translate(-268.34 -359.12)"/><path class="cls-55" d="M288.34,384.54c.09,0,.14,0,.16-.11l-.38,0A1.27,1.27,0,0,0,288.34,384.54Z" transform="translate(-268.34 -359.12)"/><path class="cls-56" d="M282.6,394.73s.06,0,.09,0a.18.18,0,0,0,.05-.07c0-.09,0-.14-.19-.16C282.57,394.6,282.58,394.67,282.6,394.73Z" transform="translate(-268.34 -359.12)"/><path class="cls-57" d="M284,372.73a.46.46,0,0,0-.29.25C283.86,373,283.94,372.89,284,372.73Z" transform="translate(-268.34 -359.12)"/><path class="cls-58" d="M278.72,371.08l0-.05a.11.11,0,0,0,0,0,.09.09,0,0,0-.15,0s0,.08,0,.12Z" transform="translate(-268.34 -359.12)"/><path class="cls-59" d="M280.64,369.17l-.2.12,0,.06C280.6,369.34,280.62,369.32,280.64,369.17Z" transform="translate(-268.34 -359.12)"/><path class="cls-60" d="M282.4,394.26h.25C282.54,393.39,282.48,393.39,282.4,394.26Z" transform="translate(-268.34 -359.12)"/><path class="cls-61" d="M281,395.89V396s.11,0,.13,0,0-.12,0-.19A1,1,0,0,1,281,395.89Z" transform="translate(-268.34 -359.12)"/><polygon class="cls-62" points="52.92 19.57 52.91 19.58 52.91 19.58 52.92 19.59 52.92 19.58 52.92 19.57"/><path class="cls-63" d="M321.27,378.47c-.11.07,0,.15,0,.22C321.42,378.62,321.42,378.6,321.27,378.47Z" transform="translate(-268.34 -359.12)"/><path class="cls-64" d="M278.42,371.82l-.24.18C278.38,372,278.41,372,278.42,371.82Z" transform="translate(-268.34 -359.12)"/><path class="cls-65" d="M282.07,375c0-.09,0-.16-.11-.15a.06.06,0,0,0,0,.05C281.91,375,282,375,282.07,375Z" transform="translate(-268.34 -359.12)"/><path class="cls-66" d="M283.51,375.9c.09.07.15,0,.21,0C283.59,375.77,283.59,375.77,283.51,375.9Z" transform="translate(-268.34 -359.12)"/><path class="cls-67" d="M271.5,383.51v0Z" transform="translate(-268.34 -359.12)"/><path class="cls-68" d="M288.1,384.4l-.19-.22C287.89,384.34,288,384.37,288.1,384.4Z" transform="translate(-268.34 -359.12)"/><path class="cls-69" d="M288.1,384.4h0Z" transform="translate(-268.34 -359.12)"/><path class="cls-70" d="M312.38,380.22c.07,0,.06-.08,0-.15s-.12,0-.11.11S312.36,380.23,312.38,380.22Z" transform="translate(-268.34 -359.12)"/><path class="cls-71" d="M284.45,396.12l-.19.06C284.39,396.25,284.42,396.24,284.45,396.12Z" transform="translate(-268.34 -359.12)"/><path class="cls-72" d="M328.84,398l0,0s-.1,0-.07.15Z" transform="translate(-268.34 -359.12)"/><path class="cls-73" d="M279.46,370.46c-.11,0-.11,0-.15.1Z" transform="translate(-268.34 -359.12)"/><path class="cls-74" d="M277.13,372l0,0,.07-.09,0,0Z" transform="translate(-268.34 -359.12)"/><path class="cls-75" d="M333.33,387.05s-4.26-3.42-13.42.61S314,407.11,314,407.11s-3.66.36-3.72,2.77,0,17.7,0,17.7,5.09,5.32,9.83,5.76S343.8,397.29,333.33,387.05Z" transform="translate(-268.34 -359.12)"/><path class="cls-76" d="M342.57,408.5c-.56-.22-1.17-.43-1.94-.69l-4.39-1.19a39.93,39.93,0,0,0-8.37-.89,45.51,45.51,0,0,0-8.38.89,41.81,41.81,0,0,0-4.39,1.19c-.77.26-1.38.48-1.94.69a1.77,1.77,0,0,0-1.07,1.58v16.74a1.77,1.77,0,0,0,1.06,1.58,39.93,39.93,0,0,0,29.43,0,1.77,1.77,0,0,0,1.06-1.58V410.08A1.77,1.77,0,0,0,342.57,408.5Zm-13,9.62V424a1.54,1.54,0,0,1-.79,1.35,1.75,1.75,0,0,1-2.68-1.48v-5.75a3.42,3.42,0,0,1-1.74-2.94,3.49,3.49,0,0,1,4.86-3.21,3.23,3.23,0,0,1,1.82,1.82A3.42,3.42,0,0,1,329.6,418.12Z" transform="translate(-268.34 -359.12)"/><path class="cls-77" d="M319.49,399.69a8.21,8.21,0,0,1,5.68-7.87,8.4,8.4,0,0,1,11.07,7.95v6.28l4.39,1.19v-7.47a12.77,12.77,0,0,0-25.53,0v7.47a41.81,41.81,0,0,1,4.39-1.19Z" transform="translate(-268.34 -359.12)"/></svg>