<svg id="Capa_1" data-name="Capa 1" xmlns="http://www.w3.org/2000/svg" xmlns:xlink="http://www.w3.org/1999/xlink" viewBox="0 0 60.38 71.3"><defs><style>.cls-1{fill:url(#DÈgradÈ_sans_nom_18);}.cls-2{fill:url(#Degradado_sin_nombre_28);}.cls-3{fill:url(#Eau_2);}</style><linearGradient id="DÈgradÈ_sans_nom_18" x1="286.33" y1="364.18" x2="328.55" y2="414.5" gradientUnits="userSpaceOnUse"><stop offset="0" stop-color="#4e4e4e"/><stop offset="1" stop-color="#1f1f1f"/></linearGradient><linearGradient id="Degradado_sin_nombre_28" x1="294.17" y1="401.53" x2="317.73" y2="401.53" gradientUnits="userSpaceOnUse"><stop offset="0" stop-color="#4e4e4e"/><stop offset="1" stop-color="#a2a1a6"/></linearGradient><linearGradient id="Eau_2" x1="299.31" y1="380.71" x2="312.12" y2="395.97" gradientUnits="userSpaceOnUse"><stop offset="0" stop-color="#a24b49"/><stop offset="0.23" stop-color="#9d4240"/><stop offset="0.58" stop-color="#922a28"/><stop offset="1" stop-color="#862520"/></linearGradient></defs><title>FORTISANBOX</title><path class="cls-1" d="M336.06,373.86a2.1,2.1,0,0,0-2.18-2c-14.75-1.16-23.31-6.57-27.93-11-4.62,4.4-13.18,9.81-27.93,11a2.08,2.08,0,0,0-2.17,2,69.5,69.5,0,0,0,3.83,27,59.69,59.69,0,0,0,10.59,18.32,55.75,55.75,0,0,0,15.68,13,55.61,55.61,0,0,0,15.68-13,59.71,59.71,0,0,0,10.6-18.32A69.87,69.87,0,0,0,336.06,373.86Zm-16.58,43.49A55.26,55.26,0,0,1,306,429a55.08,55.08,0,0,1-13.52-11.66c-6.74-8-14.52-21.87-13.74-42.81,13.44-1.14,22-5.68,27.26-9.94,5.23,4.26,13.82,8.8,27.26,9.94C334,395.48,326.21,409.35,319.48,417.35Z" transform="translate(-275.76 -360.89)"/><path class="cls-2" d="M316.93,394.09c-.41-.17-.87-.33-1.45-.52l-3.28-.89A29.82,29.82,0,0,0,306,392a33.75,33.75,0,0,0-6.25.66,32.3,32.3,0,0,0-3.28.89c-.58.19-1,.36-1.45.52a1.3,1.3,0,0,0-.8,1.17v12.51A1.33,1.33,0,0,0,295,409a29.94,29.94,0,0,0,22,0,1.34,1.34,0,0,0,.79-1.18V395.26A1.3,1.3,0,0,0,316.93,394.09Zm-9.68,7.18v4.39a1.15,1.15,0,0,1-.59,1,1.32,1.32,0,0,1-2-1.11v-4.29a2.56,2.56,0,0,1-1.29-2.2,2.6,2.6,0,0,1,3.63-2.39,2.38,2.38,0,0,1,1.35,1.36A2.55,2.55,0,0,1,307.25,401.27Z" transform="translate(-275.76 -360.89)"/><path class="cls-3" d="M299.7,387.5a6.14,6.14,0,0,1,4.24-5.87,6.26,6.26,0,0,1,8.26,5.93v4.7l3.28.89v-5.59a9.53,9.53,0,0,0-19.06,0v5.59a29.64,29.64,0,0,1,3.28-.89Z" transform="translate(-275.76 -360.89)"/></svg>