<svg id="Capa_1" data-name="Capa 1" xmlns="http://www.w3.org/2000/svg" xmlns:xlink="http://www.w3.org/1999/xlink" viewBox="0 0 76.05 57.22"><defs><style>.cls-1{fill:url(#DÈgradÈ_sans_nom_18);}.cls-2{fill:url(#Eau_2);}.cls-3{fill:url(#Eau_7);}.cls-4{fill:url(#Eau_2-2);}.cls-5{fill:url(#Eau_2-3);}.cls-6{fill:url(#Eau_2-4);}.cls-7{fill:url(#Eau_2-5);}.cls-8{fill:url(#Eau_2-6);}.cls-9{fill:#fff;}.cls-10{fill:url(#Degradado_sin_nombre_28);}.cls-11{fill:url(#Eau_2-7);}</style><linearGradient id="DÈgradÈ_sans_nom_18" x1="277.81" y1="361.29" x2="323.83" y2="416.13" gradientUnits="userSpaceOnUse"><stop offset="0" stop-color="#4e4e4e"/><stop offset="1" stop-color="#1f1f1f"/></linearGradient><linearGradient id="Eau_2" x1="42.15" y1="31.62" x2="47.5" y2="38" gradientUnits="userSpaceOnUse"><stop offset="0" stop-color="#a24b49"/><stop offset="0.23" stop-color="#9d4240"/><stop offset="0.58" stop-color="#922a28"/><stop offset="1" stop-color="#862520"/></linearGradient><linearGradient id="Eau_7" x1="52.64" y1="31.62" x2="57.99" y2="38" gradientUnits="userSpaceOnUse"><stop offset="0" stop-color="#7da5d0"/><stop offset="0.18" stop-color="#749fcc"/><stop offset="0.48" stop-color="#5a8fc3"/><stop offset="0.58" stop-color="#5089bf"/><stop offset="1" stop-color="#4677b2"/></linearGradient><linearGradient id="Eau_2-2" x1="274.85" y1="383.01" x2="280.77" y2="390.07" xlink:href="#Eau_2"/><linearGradient id="Eau_2-3" x1="23.93" y1="11.49" x2="34.25" y2="23.79" xlink:href="#Eau_2"/><linearGradient id="Eau_2-4" x1="23.93" y1="14.35" x2="34.25" y2="26.65" xlink:href="#Eau_2"/><linearGradient id="Eau_2-5" x1="23.93" y1="17.22" x2="34.25" y2="29.51" xlink:href="#Eau_2"/><linearGradient id="Eau_2-6" x1="23.93" y1="8.63" x2="34.25" y2="20.93" xlink:href="#Eau_2"/><linearGradient id="Degradado_sin_nombre_28" x1="315.69" y1="411.85" x2="343.49" y2="411.85" gradientUnits="userSpaceOnUse"><stop offset="0" stop-color="#4e4e4e"/><stop offset="1" stop-color="#a2a1a6"/></linearGradient><linearGradient id="Eau_2-7" x1="321.75" y1="387.28" x2="336.86" y2="405.29" xlink:href="#Eau_2"/></defs><title>FORTIMAIL</title><path class="cls-1" d="M334.2,372a4.24,4.24,0,0,0-4.24-4.24H271.68a4.24,4.24,0,0,0-4.24,4.24v33.48a4.24,4.24,0,0,0,4.24,4.24H330a4.24,4.24,0,0,0,4.24-4.24Zm-3.82,33.5c0,.41-.25.4-.65.4H271.68c-.4,0-.42,0-.42-.4v-26.3h59.12Zm0-30.11H271.26v-3.52c0-.41.21-.3.62-.3h57.85c.4,0,.65,0,.65.43Z" transform="translate(-267.44 -367.73)"/><rect class="cls-2" x="40.05" y="33.38" width="9.54" height="2.86"/><rect class="cls-3" x="50.54" y="33.38" width="9.54" height="2.86"/><path class="cls-4" d="M277.81,391.15a4.61,4.61,0,1,0-4.61-4.61A4.62,4.62,0,0,0,277.81,391.15Z" transform="translate(-267.44 -367.73)"/><rect class="cls-5" x="17.17" y="17.17" width="23.84" height="0.95"/><rect class="cls-6" x="17.17" y="20.03" width="23.84" height="0.95"/><rect class="cls-7" x="17.17" y="22.89" width="23.84" height="0.95"/><rect class="cls-8" x="17.17" y="14.3" width="23.84" height="0.95"/><path class="cls-9" d="M334.4,384.18s-3.75-3-11.82.53-5.22,17.13-5.22,17.13-3.23.32-3.27,2.44,0,15.59,0,15.59,4.47,4.69,8.66,5.08S343.63,393.2,334.4,384.18Z" transform="translate(-267.44 -367.73)"/><path class="cls-10" d="M342.54,403.07c-.49-.19-1-.38-1.71-.61l-3.87-1a35,35,0,0,0-7.37-.78,39.74,39.74,0,0,0-7.37.78,35.26,35.26,0,0,0-3.87,1c-.68.23-1.22.42-1.71.61a1.54,1.54,0,0,0-.95,1.39V419.2a1.57,1.57,0,0,0,.94,1.39,35.1,35.1,0,0,0,25.92,0,1.57,1.57,0,0,0,.94-1.39V404.46A1.54,1.54,0,0,0,342.54,403.07Zm-11.42,8.47v5.17a1.35,1.35,0,0,1-.7,1.2,1.55,1.55,0,0,1-2.36-1.31v-5.06a3,3,0,0,1-1.53-2.59,3.08,3.08,0,0,1,4.28-2.83,2.88,2.88,0,0,1,1.6,1.61A3,3,0,0,1,331.12,411.54Z" transform="translate(-267.44 -367.73)"/><path class="cls-11" d="M322.22,395.3a7.25,7.25,0,0,1,5-6.93,7.39,7.39,0,0,1,9.74,7v5.54l3.87,1v-6.59a11.24,11.24,0,0,0-22.48,0V402a35.26,35.26,0,0,1,3.87-1Z" transform="translate(-267.44 -367.73)"/></svg>