<svg id="Capa_1" data-name="Capa 1" xmlns="http://www.w3.org/2000/svg" xmlns:xlink="http://www.w3.org/1999/xlink" viewBox="0 0 75.28 63.05"><defs><style>.cls-1{fill-rule:evenodd;fill:url(#DÈgradÈ_sans_nom_18);}.cls-2{fill:url(#Degradado_sin_nombre_28);}.cls-3{fill:url(#Eau_2);}</style><linearGradient id="DÈgradÈ_sans_nom_18" x1="289.46" y1="374.52" x2="326.97" y2="419.22" gradientUnits="userSpaceOnUse"><stop offset="0" stop-color="#4e4e4e"/><stop offset="1" stop-color="#1f1f1f"/></linearGradient><linearGradient id="Degradado_sin_nombre_28" x1="298.7" y1="419.59" x2="319.54" y2="419.59" gradientUnits="userSpaceOnUse"><stop offset="0" stop-color="#4e4e4e"/><stop offset="1" stop-color="#a2a1a6"/></linearGradient><linearGradient id="Eau_2" x1="303.24" y1="401.18" x2="314.57" y2="414.68" gradientUnits="userSpaceOnUse"><stop offset="0" stop-color="#a24b49"/><stop offset="0.23" stop-color="#9d4240"/><stop offset="0.58" stop-color="#922a28"/><stop offset="1" stop-color="#862520"/></linearGradient></defs><title>FORTI...CLOUD</title><path class="cls-1" d="M343.57,392.15h0a1.42,1.42,0,0,0-.08-.18,14.17,14.17,0,0,0-6.7-6.75c-.48-.24-1-.47-1.53-.73A18.74,18.74,0,0,0,311,365.81a18.81,18.81,0,0,0-10.73,8.6c-.67,0-1.22,0-1.77,0a22.8,22.8,0,0,0-3.31.19,13.8,13.8,0,0,0-10.22,8l-.52,1.05c-1.3.15-2.46.2-3.6.42a14,14,0,0,0-9.44,20.74,13.38,13.38,0,0,0,11.88,7.06c4.1.11,9.27,0,13.38,0a8,8,0,0,0,1-.12,4.39,4.39,0,0,0,.19-2.17,4.09,4.09,0,0,0-.27-2.34c-.6,0-1.2,0-1.81,0H283.85a10,10,0,0,1-3.44-.53,9.39,9.39,0,0,1,3.68-18.21c.83.05,1.66.16,2.49.2a8.94,8.94,0,0,0,1.14-.07c.41-1.17.76-2.28,1.19-3.36a9.27,9.27,0,0,1,6.68-6,9.86,9.86,0,0,1,4.12,0,12.14,12.14,0,0,0,3,.42c.63-1.11,1.2-2.19,1.85-3.22a13.73,13.73,0,0,1,11.56-6.78,14,14,0,0,1,14.46,14.47c-.06.89-.07,1.78-.06,2.67a8.06,8.06,0,0,0,.13,1.1c1.23.44,2.41.78,3.52,1.27a9.35,9.35,0,0,1-3.66,18c-3.17,0-6.33,0-9.5,0a2.7,2.7,0,0,0-1.61.2,12.29,12.29,0,0,0,0,4.28,2.81,2.81,0,0,0,1.6.18c3,0,6.11,0,9.16,0,.55,0,1.11,0,1.66-.07a13.55,13.55,0,0,0,9.4-4.77,12.46,12.46,0,0,0,3.13-5.62h0C345.64,395.54,343.57,392.15,343.57,392.15Z" transform="translate(-269.49 -364.95)"/><path class="cls-2" d="M318.83,413c-.37-.14-.78-.29-1.29-.45l-2.89-.79a26.44,26.44,0,0,0-5.53-.59,30.27,30.27,0,0,0-5.53.59,26.43,26.43,0,0,0-2.9.79c-.51.16-.91.31-1.28.45a1.16,1.16,0,0,0-.71,1v11.06a1.18,1.18,0,0,0,.7,1,26.43,26.43,0,0,0,19.43,0,1.19,1.19,0,0,0,.71-1V414.05A1.17,1.17,0,0,0,318.83,413Zm-8.56,6.35v3.88a1,1,0,0,1-.53.89,1.16,1.16,0,0,1-1.77-1v-3.79a2.27,2.27,0,0,1-1.15-1.94A2.31,2.31,0,0,1,310,415.3a2.12,2.12,0,0,1,1.2,1.2A2.25,2.25,0,0,1,310.27,419.36Z" transform="translate(-269.49 -364.95)"/><path class="cls-3" d="M303.59,407.19a5.43,5.43,0,0,1,3.75-5.2,5.56,5.56,0,0,1,7.31,5.25v4.15l2.89.79v-4.94a8.43,8.43,0,0,0-16.85,0v4.94a26.43,26.43,0,0,1,2.9-.79Z" transform="translate(-269.49 -364.95)"/></svg>